<svg width="73" height="70" viewBox="0 0 73 70" fill="none" xmlns="http://www.w3.org/2000/svg">
<path d="M32.1198 60.8695H52.5598V63.913H32.1198V60.8695Z" fill="#31CFFF"/>
<path d="M20.4401 66.9564H49.6401V69.9999H20.4401V66.9564Z" fill="#31CFFF"/>
<path d="M44.8218 48.1477C42.6931 50.339 38.135 52.0403 34.8062 53.0173C35.7114 49.5781 37.3758 44.739 39.4782 42.5781L44.8218 48.1477Z" fill="#BCBCBC"/>
<path d="M69.5838 13.6957C68.5326 13.2696 67.5106 13.087 66.5178 13.087C62.5174 13.087 59.2762 15.8565 59.2762 15.8565C59.2762 15.8565 50.487 23.1913 43.2454 29.4913C42.2526 21.5478 40.0918 10.5609 37.9602 6.08696C35.0402 0 32.1202 0 32.1202 0H11.6802C11.6802 0 8.76017 0 5.84017 6.08696C3.62097 10.713 1.40176 22.4304 0.467364 30.4348H3.38736C3.70856 27.6652 4.20496 24.4696 4.78896 21.3043H39.0114C39.1866 22.3087 39.3618 23.3435 39.537 24.3478C39.975 26.9957 40.3254 29.5826 40.559 31.8043C37.8434 34.2087 35.595 36.2478 34.4854 37.3739C31.5654 40.4174 29.6674 46.7478 28.8206 50.123C27.9738 49.7913 27.0102 49.5752 25.9882 49.5752C24.3822 49.5752 22.601 50.123 20.7906 51.7361H20.4402C19.8562 51.7361 19.3306 51.7361 18.7758 51.6752C18.2502 51.6752 17.7246 51.6113 17.2282 51.5535C6.92056 50.4913 3.94217 44.1913 3.15376 39.5652H0.233765C1.13896 45.5913 5.08097 53.9 18.2794 54.7217C14.279 61.1435 15.9142 69.6652 15.9142 69.6652C15.9142 69.6652 17.5202 70 19.9438 70C27.5942 70 30.5434 66.9565 30.5434 66.9565C33.9014 64.2783 34.9526 60.8696 34.9526 60.8696C35.3614 59.1348 35.1278 57.5217 34.6314 56.1826C37.9018 55.3 43.9462 53.3522 46.8662 50.2783C51.0126 45.99 67.5106 24.4726 67.5106 24.4726C67.5106 24.4726 71.4234 19.6609 69.5838 13.6957ZM20.4402 18.2609H5.37297C6.30737 13.7261 7.38777 9.61739 8.43897 7.45652C10.1326 3.92609 11.5926 3.16522 11.9138 3.04348H20.4402V18.2609ZM23.3602 18.2609V3.04348H31.8866C32.1494 3.13478 33.259 3.71304 34.6314 6.08696C34.865 6.48261 35.0986 6.93913 35.3614 7.45652C36.4126 9.61739 37.493 13.7261 38.4274 18.2609H23.3602ZM23.7106 66.6217C21.9586 66.8652 20.2942 66.9291 18.5422 66.9291C18.4254 65.0726 18.513 63.213 18.8634 61.39C19.5642 57.6496 22.2798 51.9248 26.7474 52.6857C29.6382 53.1726 32.2662 55.8843 32.2662 59.0161C32.2662 63.4565 27.2438 65.8913 23.7106 66.6217ZM34.8066 53.0174C34.281 53.1696 33.7846 53.2913 33.3466 53.413L32.7042 52.7739L32.529 52.5609L32.2954 52.3204L31.507 51.4683C31.8574 49.9465 32.4414 47.8465 33.1714 45.8074L38.807 51.6509C37.4346 52.1957 36.033 52.6522 34.8066 53.0174ZM41.6686 50.3391L34.4299 42.8217C35.0723 41.4826 35.7731 40.3261 36.5615 39.5348L39.4815 42.5783L44.8251 48.1478C44.0338 48.9391 42.9242 49.7 41.6686 50.3391ZM66.6638 19.7826C66.1382 21.3957 65.3206 22.4609 65.233 22.5522C65.1162 22.7348 52.531 39.1391 46.8078 45.9261L38.6902 37.4652C45.2018 31.503 60.9114 18.3522 61.1158 18.2335C61.1158 18.203 63.6854 16.1335 66.5207 16.1335C66.7222 16.1335 66.9295 16.1639 67.1339 16.1639C67.277 17.5304 67.0434 18.7783 66.6638 19.7826Z" fill="#2D2220"/>
<path d="M32.2658 59.0129C32.2658 60.2912 31.7986 61.7247 30.3678 63.2129C27.8566 65.8303 24.3526 66.7129 21.4618 66.8986C21.2866 63.8216 21.5202 58.2521 25.0242 54.6029C25.8418 53.7508 26.6594 53.1695 27.477 52.8682C28.645 53.2334 29.5794 53.9334 30.0466 54.2986L30.251 54.4843L30.6014 54.8464C31.273 55.6347 32.2658 57.1564 32.2658 59.0129Z" fill="#31CFFF"/>
<path d="M66.6633 19.7826C66.1377 21.3956 65.3201 22.4609 65.2325 22.5522C65.1157 22.7348 52.5305 39.1391 46.8073 45.9261L41.6097 40.5087C48.1213 34.5465 63.8309 21.3956 64.0353 21.2769C64.0353 21.2435 65.1157 20.3609 66.6633 19.7826Z" fill="#E371FF"/>
<path d="M38.4272 18.2608H26.28V6.08691H34.6312C34.8648 6.48257 35.0984 6.93909 35.3612 7.45648C36.4124 9.61735 37.4928 13.726 38.4272 18.2608Z" fill="#FFA28D"/>
<path d="M20.4402 6.08691V18.2608H8.9646C9.7238 14.9739 10.5414 12.1739 11.359 10.5C13.0526 6.96952 14.5126 6.20865 14.8338 6.08691H20.4402Z" fill="#FFA28D"/>
<path d="M38.4272 18.2608H26.28V6.08691H34.6312C34.8648 6.48257 35.0984 6.93909 35.3612 7.45648C36.4124 9.61735 37.4928 13.726 38.4272 18.2608Z" fill="#BCBCBC"/>
<path d="M20.4402 6.08691V18.2608H8.9646C9.7238 14.9739 10.5414 12.1739 11.359 10.5C13.0526 6.96952 14.5126 6.20865 14.8338 6.08691H20.4402Z" fill="#BCBCBC"/>
<path d="M40.5589 31.8044C37.8433 34.2088 35.5949 36.2479 34.4853 37.374C31.5653 40.4175 29.6673 46.7479 28.8205 50.1231C27.9737 49.7914 27.0101 49.5753 25.9881 49.5753C24.3821 49.5753 22.6009 50.1231 20.7905 51.7362H20.4401C19.8561 51.7362 19.3305 51.7362 18.7757 51.6753C18.2501 51.6753 17.7245 51.6114 17.2281 51.5535C12.3809 48.0566 11.6801 42.5175 11.6801 39.5653C11.6801 36.4609 12.4393 30.3131 13.5489 24.3479H39.5369C39.9749 26.9957 40.3253 29.5827 40.5589 31.8044Z" fill="#BCBCBC"/>
<path d="M1.46 36.5219C2.26634 36.5219 2.92 35.8406 2.92 35.0001C2.92 34.1597 2.26634 33.4784 1.46 33.4784C0.653664 33.4784 0 34.1597 0 35.0001C0 35.8406 0.653664 36.5219 1.46 36.5219Z" fill="#2D2220"/>
<path d="M64.2399 62.3912C64.2399 61.5512 63.5858 60.8695 62.7799 60.8695H56.9399C56.1339 60.8695 55.4799 61.5512 55.4799 62.3912C55.4799 63.2312 56.1339 63.913 56.9399 63.913H62.7799C63.5858 63.913 64.2399 63.2312 64.2399 62.3912Z" fill="#31CFFF"/>
<path d="M72.9998 62.3912C72.9998 61.5512 72.3457 60.8695 71.5398 60.8695H68.6198C67.8139 60.8695 67.1598 61.5512 67.1598 62.3912C67.1598 63.2312 67.8139 63.913 68.6198 63.913H71.5398C72.3457 63.913 72.9998 63.2312 72.9998 62.3912Z" fill="#31CFFF"/>
<path d="M61.3198 68.4782C61.3198 67.6382 60.6657 66.9564 59.8598 66.9564H54.0198C53.2139 66.9564 52.5598 67.6382 52.5598 68.4782C52.5598 69.3182 53.2139 69.9999 54.0198 69.9999H59.8598C60.6657 69.9999 61.3198 69.3182 61.3198 68.4782Z" fill="#31CFFF"/>
<path d="M70.0799 68.4782C70.0799 67.6382 69.4258 66.9564 68.6199 66.9564H65.6999C64.8939 66.9564 64.2399 67.6382 64.2399 68.4782C64.2399 69.3182 64.8939 69.9999 65.6999 69.9999H68.6199C69.4258 69.9999 70.0799 69.3182 70.0799 68.4782Z" fill="#31CFFF"/>
</svg>
