<svg width="69" height="76" viewBox="0 0 69 76" fill="none" xmlns="http://www.w3.org/2000/svg">
<path d="M67.3222 65.052L62.3672 56.2196C61.8631 55.321 61.3708 54.4143 60.9628 53.4724C60.343 52.0408 59.2947 50.8085 57.9406 49.9345C57.1408 49.4182 56.2529 49.0391 55.3168 48.8141L46.6879 46.7407L43.138 45.0699C41.6123 44.3518 40.6461 42.8686 40.6461 41.2447V39.8838C38.8063 40.9896 36.6347 41.633 34.3119 41.633C32.1456 41.633 30.1108 41.0725 28.3537 40.1002V41.2447C28.3537 42.8686 27.3875 44.3518 25.8618 45.0699L22.3119 46.7407L13.6829 48.8141C12.7469 49.0391 11.8587 49.4182 11.0592 49.9345C9.70543 50.8085 8.6571 52.0408 8.0373 53.4721C7.62929 54.4143 7.137 55.321 6.63289 56.2196L1.67795 65.052C-0.914125 69.6728 2.41405 75.2582 7.97168 75.2582H61.0284C66.5857 75.2579 69.9148 69.6731 67.3222 65.052Z" fill="#70D6F9"/>
<path d="M46.2617 19.881C46.2549 19.5574 45.9837 19.2908 45.6447 19.2813C40.6795 19.1424 38.0635 17.2638 37.0584 16.3233C36.7841 16.0665 36.3409 16.0935 36.1018 16.3806C31.7365 21.6213 25.2966 20.8818 23.1315 20.4492C22.7381 20.3706 22.3605 20.6538 22.3602 21.0373V30.2229C22.3602 36.498 27.7384 41.6324 34.3121 41.6324C40.8854 41.6324 46.2639 36.4983 46.2639 30.2229V20.0594C46.2636 20.0001 46.2629 19.9404 46.2617 19.881Z" fill="#F9D0B4"/>
<path d="M43.6643 7.77901C42.3908 7.77901 41.2 8.1225 40.1769 8.70823C38.9814 6.80408 36.8042 5.51831 34.3222 5.51831H30.8165C24.0314 5.51831 18.48 10.8178 18.48 17.295V22.572C19.3336 21.9198 20.4149 21.5276 21.5933 21.5276C21.8545 21.5276 22.1101 21.5487 22.3602 21.5858V21.0375C22.3605 20.6536 22.738 20.3707 23.1314 20.4493C25.2965 20.8819 31.7364 21.6214 36.1017 16.381C36.3409 16.0939 36.7837 16.0666 37.0583 16.3237C38.0634 17.2642 40.6797 19.1428 45.6446 19.2817C45.9836 19.2912 46.2548 19.5578 46.2616 19.8814C46.2629 19.9408 46.2635 20.0002 46.2635 20.0598V21.5861C46.5135 21.549 46.7695 21.5279 47.0304 21.5279C48.3754 21.5279 49.5938 22.0385 50.4913 22.8644V14.2963C50.4913 10.7118 47.4191 7.77901 43.6643 7.77901Z" fill="#5B5D60"/>
<path d="M47.0305 21.5276C46.7692 21.5276 46.5136 21.5487 46.2636 21.5858V30.2231C46.2636 30.4804 46.2511 30.7352 46.2334 30.9881C46.4937 31.0282 46.7583 31.0546 47.0305 31.0546C49.7864 31.0546 52.0202 28.9219 52.0202 26.2909C52.0205 23.6603 49.7864 21.5276 47.0305 21.5276Z" fill="#F9D0B4"/>
<path d="M22.3603 30.2231V21.5858C22.1103 21.5487 21.8543 21.5276 21.5934 21.5276C18.8375 21.5276 16.6036 23.6603 16.6036 26.2912C16.6036 28.9222 18.8378 31.0549 21.5934 31.0549C21.8655 31.0549 22.1302 31.0285 22.3905 30.9884V30.9881C22.3724 30.7349 22.3603 30.4804 22.3603 30.2231Z" fill="#F9D0B4"/>
<path d="M39.4628 54.7826C38.1249 53.5933 36.0192 53.6848 34.7264 54.9186C34.6014 55.0379 34.3987 55.0379 34.2736 54.9186C32.9812 53.6848 30.8752 53.5933 29.5373 54.7826C28.1329 56.0313 28.1034 58.1311 29.449 59.4154L33.8037 63.5722C34.1884 63.9394 34.8123 63.9394 35.197 63.5722L39.5517 59.4154C40.8967 58.1314 40.8672 56.0313 39.4628 54.7826Z" fill="#FC657E"/>
<path d="M43.1387 45.0695C41.613 44.3514 40.6467 42.8682 40.6467 41.2443V39.8834C38.8069 40.9893 36.6353 41.6326 34.3126 41.6326C32.1462 41.6326 30.1114 41.0721 28.3544 40.0998V41.2443C28.3544 42.8682 27.3881 44.3514 25.8624 45.0695L25.3064 45.3314C27.0859 48.445 30.5425 50.5739 34.5007 50.5739C38.4589 50.5739 41.9155 48.445 43.695 45.3314L43.1387 45.0695Z" fill="#F9D0B4"/>
<path d="M47.9326 65.9152C47.0805 65.9152 46.2633 65.5919 45.6609 65.0169C45.0582 64.4415 44.2412 64.1185 43.3891 64.1185H41.8967C41.3771 64.1185 40.9557 64.5205 40.9557 65.0169C40.9557 65.513 40.5343 65.9152 40.0146 65.9152H38.5406C37.3796 65.9152 36.4386 66.8136 36.4386 67.9218V71.5772C36.4386 72.5533 36.8447 73.4894 37.5678 74.1799C38.2908 74.8702 39.2714 75.2579 40.2939 75.2579H49.2344V65.9179C49.2344 65.917 49.2347 65.9161 49.2347 65.9152H47.9326Z" fill="#F9D0B4"/>
<path d="M30.4599 65.9152H28.9858C28.4662 65.9152 28.0448 65.513 28.0448 65.0169C28.0448 64.5208 27.6234 64.1185 27.1037 64.1185H25.6113C24.7592 64.1185 23.9419 64.4415 23.3395 65.0169C22.7369 65.5919 21.9199 65.9152 21.0678 65.9152H19.7654C19.7654 65.9161 19.7657 65.917 19.7657 65.9179V75.2579H28.7062C29.7288 75.2579 30.7093 74.8702 31.4323 74.1799C32.1554 73.4897 32.5615 72.5533 32.5615 71.5772V67.9218C32.5618 66.8136 31.6208 65.9152 30.4599 65.9152Z" fill="#F9D0B4"/>
<path d="M47.039 19.8665C47.024 19.1433 46.4217 18.5606 45.6675 18.5395C40.8945 18.4059 38.4374 16.5745 37.6027 15.7934C37.3154 15.5241 36.9217 15.3825 36.5199 15.4072C36.1184 15.4309 35.7443 15.6174 35.4933 15.919C31.4698 20.7485 25.6189 20.1875 23.2908 19.7225C22.8694 19.6382 22.4372 19.7389 22.1035 19.9975C21.7729 20.2534 21.5832 20.6322 21.5829 21.0451V30.223C21.5829 36.9235 27.2932 42.3747 34.3122 42.3747C41.3311 42.3747 47.0415 36.9235 47.0415 30.223V20.0595C47.0411 19.9954 47.0405 19.931 47.039 19.8665ZM45.4862 30.223C45.4862 36.105 40.4734 40.8903 34.3119 40.8903C28.1503 40.8903 23.1375 36.105 23.1375 30.223V21.2075C25.3511 21.6211 32.051 22.3202 36.6197 16.9503C37.8608 18.0716 40.586 19.8511 45.4862 20.0191V20.0595V30.223Z" fill="black"/>
<path d="M43.6643 7.03695C42.5491 7.03695 41.4445 7.27742 40.4313 7.73728C39.0023 5.89546 36.7234 4.77625 34.322 4.77625H30.8162C23.5852 4.77625 17.7023 10.3922 17.7023 17.2952V22.47C17.7023 22.88 18.0503 23.2122 18.4797 23.2122C18.9092 23.2122 19.2572 22.88 19.2572 22.47V17.2955C19.2572 11.211 24.4426 6.26092 30.8162 6.26092H34.322C36.4267 6.26092 38.4146 7.3451 39.5099 9.09014C39.6159 9.25906 39.7879 9.38078 39.9879 9.42857C40.1875 9.47607 40.3996 9.44639 40.5765 9.34515C41.5176 8.80632 42.5855 8.52162 43.6643 8.52162C47 8.52162 49.7139 11.1124 49.7139 14.2967V22.6496C49.7139 23.0596 50.0619 23.3918 50.4914 23.3918C50.9209 23.3918 51.2689 23.0596 51.2689 22.6496V14.2964C51.2689 10.2934 47.8577 7.03695 43.6643 7.03695Z" fill="black"/>
<path d="M47.0305 20.7854C46.8318 20.7854 46.6284 20.7961 46.4253 20.8169C45.9983 20.8608 45.6898 21.2269 45.7362 21.6345C45.7822 22.0421 46.1653 22.3375 46.5926 22.2923C46.74 22.2772 46.8874 22.2695 47.0305 22.2695C49.3533 22.2695 51.2428 24.0736 51.2428 26.2909C51.2428 28.5083 49.3529 30.3121 47.0305 30.3121C46.9005 30.3121 46.7668 30.3047 46.6219 30.2896C46.193 30.2465 45.8111 30.5389 45.7642 30.9465C45.7175 31.3541 46.0257 31.7205 46.4524 31.7653C46.6542 31.7864 46.8433 31.7965 47.0305 31.7965C50.2106 31.7965 52.7977 29.3268 52.7977 26.2909C52.7977 23.2551 50.2106 20.7854 47.0305 20.7854Z" fill="black"/>
<path d="M22.9431 30.9265C22.8899 30.5201 22.504 30.2333 22.0751 30.282C21.9022 30.3028 21.7445 30.3129 21.5934 30.3129C19.2707 30.3129 17.3811 28.5087 17.3811 26.2917C17.3811 24.0743 19.271 22.2702 21.5934 22.2702C21.738 22.2702 21.887 22.2782 22.0369 22.294C22.4657 22.3355 22.8476 22.044 22.8943 21.637C22.9409 21.2294 22.6327 20.863 22.2061 20.8185C22.0002 20.7971 21.794 20.7861 21.5934 20.7861C18.4133 20.7861 15.8262 23.2561 15.8262 26.292C15.8262 29.3278 18.4133 31.7975 21.5934 31.7975C21.8095 31.7975 22.0303 31.7839 22.2679 31.7554C22.694 31.704 22.9963 31.3332 22.9431 30.9265Z" fill="black"/>
<path d="M39.9926 54.2398C38.4831 52.8979 36.1041 52.8712 34.5 54.116C32.8953 52.8718 30.5166 52.8988 29.0074 54.2398C28.1745 54.9805 27.705 55.9854 27.6847 57.0696C27.6648 58.154 28.0959 59.1738 28.8995 59.9403L33.2539 64.0972C33.5866 64.4151 34.0295 64.59 34.5003 64.59C34.9712 64.59 35.414 64.4151 35.7464 64.0972L40.1009 59.9403C40.9041 59.1735 41.3355 58.1538 41.3156 57.0693C41.2954 55.9854 40.8255 54.9802 39.9926 54.2398ZM39.0015 58.8909L34.6468 63.0477C34.5964 63.0958 34.5392 63.1056 34.5 63.1056C34.4608 63.1056 34.4036 63.0955 34.3532 63.0477L29.9988 58.8906C29.4965 58.4111 29.2269 57.7738 29.2397 57.0957C29.2524 56.4179 29.5463 55.7894 30.0675 55.326C30.5489 54.8982 31.1737 54.6866 31.8053 54.6866C32.4976 54.6866 33.1976 54.941 33.7244 55.4439C34.152 55.8524 34.8483 55.8524 35.2765 55.4439C36.2838 54.4823 37.9243 54.4295 38.9331 55.3263C39.4543 55.7897 39.7485 56.4182 39.761 57.096C39.7734 57.774 39.5035 58.4114 39.0015 58.8909Z" fill="black"/>
<path d="M68.0075 64.7013L63.0525 55.869C62.6056 55.0722 62.0941 54.1424 61.6814 53.1885C60.9991 51.6127 59.8562 50.2747 58.3762 49.3193C57.4989 48.7529 56.5336 48.3408 55.5068 48.0941L46.9581 46.04L43.4822 44.404C42.2124 43.8064 41.4238 42.5957 41.4238 41.244V40.1768C41.4238 39.7668 41.0758 39.4346 40.6463 39.4346C40.2168 39.4346 39.8688 39.7668 39.8688 40.1768V41.244C39.8688 43.1648 40.9899 44.8858 42.7946 45.7351L46.3445 47.406C46.3936 47.4291 46.4453 47.4472 46.4984 47.46L55.1274 49.5334C55.9782 49.7379 56.7784 50.0796 57.5055 50.5487C58.732 51.3404 59.6793 52.4493 60.2446 53.7552C60.685 54.772 61.2174 55.7407 61.6823 56.5693L66.6373 65.4016C68.9914 69.598 65.9397 74.5151 61.0286 74.5151H7.9716C3.06175 74.5151 0.00848484 69.5989 2.36296 65.4013L7.3179 56.5693C7.89354 55.5436 8.35846 54.6726 8.7559 53.7549C9.32128 52.449 10.2682 51.3401 11.4948 50.5484C12.2218 50.079 13.022 49.7376 13.8729 49.5331L22.5018 47.4597C22.555 47.4469 22.6066 47.4288 22.6557 47.4057L26.2057 45.7349C28.0103 44.8855 29.1314 43.1645 29.1314 41.2437V40.319C29.1314 39.909 28.7834 39.5768 28.3539 39.5768C27.9245 39.5768 27.5765 39.909 27.5765 40.319V41.2437C27.5765 42.5951 26.7878 43.8058 25.5181 44.4037L22.0422 46.0397L13.4935 48.0938C12.4666 48.3405 11.5013 48.7529 10.624 49.319C9.14401 50.2744 8.00114 51.6121 7.31915 53.1879C6.94659 54.0485 6.50156 54.8819 5.9477 55.8684L0.992756 64.7007C-1.90159 69.8604 1.86725 76.0001 7.9716 76.0001H61.028C67.1342 76.0001 70.9009 69.8592 68.0075 64.7013Z" fill="black"/>
<path d="M43.946 44.9252C43.5744 44.7192 43.0986 44.8397 42.8833 45.1942C41.1424 48.0549 37.9303 49.832 34.5001 49.832C31.045 49.832 27.8214 48.0356 26.0867 45.144C25.873 44.7881 25.3981 44.6646 25.0256 44.8688C24.653 45.0725 24.524 45.5258 24.7373 45.8818C26.7481 49.2341 30.489 51.3164 34.5001 51.3164C38.4823 51.3164 42.2094 49.2563 44.2277 45.94C44.4436 45.5852 44.3173 45.131 43.946 44.9252Z" fill="black"/>
<path d="M62.675 63.9084H50.5615C49.4012 63.9084 48.457 64.8098 48.457 65.9174V74.9608C48.457 75.3708 48.805 75.703 49.2345 75.703C49.664 75.703 50.012 75.3708 50.012 74.9608V65.9177C50.012 65.6282 50.2583 65.3931 50.5615 65.3931H62.675C63.1045 65.3931 63.4525 65.0609 63.4525 64.6509C63.4525 64.2409 63.1045 63.9084 62.675 63.9084Z" fill="black"/>
<path d="M49.1228 65.173H47.9323C47.2821 65.173 46.6704 64.9314 46.2104 64.4923C45.4569 63.7727 44.4546 63.3763 43.3885 63.3763H41.8964C40.9488 63.3763 40.1779 64.1123 40.1779 65.0169C40.1779 65.103 40.1045 65.173 40.0143 65.173H38.5406C36.953 65.173 35.6611 66.4063 35.6611 67.9218V71.5772C35.6611 72.7585 36.1432 73.8691 37.0183 74.7045C37.8856 75.5325 39.0384 75.9923 40.265 75.9998H40.27C40.6969 75.9998 41.0446 75.6705 41.0474 75.2623C41.0502 74.8526 40.7041 74.5181 40.2749 74.5154C39.4601 74.5103 38.6942 74.2049 38.1179 73.655C37.5367 73.0999 37.2164 72.3622 37.2164 71.5772V67.9218C37.2164 67.2244 37.8107 66.6574 38.5409 66.6574H40.0146C40.9622 66.6574 41.7331 65.9215 41.7331 65.0169C41.7331 64.9308 41.8065 64.8607 41.8967 64.8607H43.3888C44.0394 64.8607 44.6511 65.1024 45.1111 65.5418C45.8649 66.2611 46.8669 66.6574 47.9326 66.6574H49.1231C49.5526 66.6574 49.9006 66.3252 49.9006 65.9152C49.9006 65.5052 49.5523 65.173 49.1228 65.173Z" fill="black"/>
<path d="M18.4387 63.9084H6.32519C5.89572 63.9084 5.54773 64.2407 5.54773 64.6506C5.54773 65.0606 5.89572 65.3928 6.32519 65.3928H18.4387C18.7419 65.3928 18.9882 65.6279 18.9882 65.9174V74.9608C18.9882 75.3708 19.3362 75.703 19.7657 75.703C20.1952 75.703 20.5432 75.3708 20.5432 74.9608V65.9177C20.5432 64.8098 19.599 63.9084 18.4387 63.9084Z" fill="black"/>
<path d="M30.4596 65.173H28.9858C28.8956 65.173 28.8222 65.103 28.8222 65.0169C28.8222 64.1123 28.0513 63.3763 27.1037 63.3763H25.6116C24.5455 63.3763 23.5435 63.7727 22.79 64.492C22.3301 64.9311 21.7184 65.173 21.0678 65.173H19.9159C19.4864 65.173 19.1384 65.5052 19.1384 65.9152C19.1384 66.3252 19.4864 66.6574 19.9159 66.6574H21.0678C22.1335 66.6574 23.1355 66.2614 23.8894 65.5418C24.3493 65.1027 24.9607 64.8607 25.6116 64.8607H27.1037C27.1939 64.8607 27.2673 64.9308 27.2673 65.0169C27.2673 65.9215 28.0382 66.6574 28.9858 66.6574H30.4596C31.1901 66.6574 31.7841 67.2247 31.7841 67.9218V71.5772C31.7841 72.3622 31.4637 73.0999 30.8825 73.655C30.3199 74.1921 29.5723 74.4973 28.7771 74.5148C28.348 74.5243 28.0081 74.8642 28.018 75.2742C28.028 75.678 28.3741 75.9992 28.7952 75.9992H28.8135C30.0102 75.9727 31.1353 75.5129 31.9818 74.7048C32.857 73.8697 33.339 72.7588 33.339 71.5775V67.9221C33.339 66.4062 32.0472 65.173 30.4596 65.173Z" fill="black"/>
<path d="M51.4305 43.354C51.1174 43.0734 50.6254 43.0886 50.3315 43.3878L41.3978 52.485C41.1042 52.7839 41.1198 53.2536 41.4333 53.5341C41.5832 53.6683 41.7744 53.7348 41.9647 53.7348C42.1722 53.7348 42.379 53.6561 42.532 53.5003L51.4657 44.4031C51.7596 44.1039 51.7437 43.6342 51.4305 43.354Z" fill="black"/>
<path d="M55.3985 39.3418C55.085 39.0612 54.5933 39.0764 54.2994 39.3756L52.2902 41.4217C51.9966 41.7206 52.0121 42.1903 52.3256 42.4708C52.4755 42.605 52.6668 42.6715 52.8571 42.6715C53.0645 42.6715 53.2713 42.5928 53.4243 42.437L55.4336 40.3909C55.7275 40.0917 55.7116 39.622 55.3985 39.3418Z" fill="black"/>
<path d="M49.1173 54.5579C48.9845 54.1681 48.5454 53.9547 48.1374 54.082L43.6757 55.4699C43.2673 55.597 43.0444 56.0159 43.1772 56.4054C43.2841 56.7189 43.5886 56.9178 43.9161 56.9178C43.996 56.9178 44.0772 56.9059 44.1571 56.8809L48.6188 55.4931C49.0271 55.3666 49.2504 54.9477 49.1173 54.5579Z" fill="black"/>
<path d="M63.5475 50.7829C63.4337 50.3878 63.0052 50.1556 62.5916 50.2645L50.9066 53.3369C50.4927 53.4459 50.2495 53.8544 50.3636 54.2495C50.4585 54.5787 50.7716 54.7946 51.1128 54.7946C51.1812 54.7946 51.2505 54.786 51.3199 54.7678L63.0049 51.6955C63.4185 51.5868 63.6617 51.1783 63.5475 50.7829Z" fill="black"/>
<path d="M55.9595 59.672H43.8311C43.4016 59.672 43.0536 60.0042 43.0536 60.4142C43.0536 60.8242 43.4016 61.1564 43.8311 61.1564H55.9595C56.389 61.1564 56.737 60.8242 56.737 60.4142C56.737 60.0042 56.389 59.672 55.9595 59.672Z" fill="black"/>
<path d="M27.6021 52.4846L18.6684 43.3875C18.3745 43.0885 17.8829 43.0731 17.5694 43.3536C17.2562 43.6339 17.2404 44.1035 17.5339 44.4028L26.4676 53.4999C26.6206 53.6558 26.8274 53.7344 27.0349 53.7344C27.2255 53.7344 27.4165 53.6679 27.5664 53.5338C27.8798 53.2532 27.8957 52.7836 27.6021 52.4846Z" fill="black"/>
<path d="M16.71 41.4218L14.7008 39.3757C14.4069 39.0768 13.9149 39.0614 13.6017 39.3419C13.2886 39.6221 13.2727 40.0918 13.5663 40.3911L15.5756 42.4371C15.7286 42.593 15.9354 42.6716 16.1428 42.6716C16.3334 42.6716 16.5244 42.6051 16.6743 42.471C16.9881 42.1904 17.0039 41.7208 16.71 41.4218Z" fill="black"/>
<path d="M25.3245 55.4702L20.8628 54.0823C20.4551 53.9552 20.0156 54.1684 19.8828 54.5582C19.7501 54.948 19.973 55.3668 20.3814 55.4936L24.8431 56.8815C24.923 56.9064 25.0042 56.9183 25.0841 56.9183C25.4116 56.9183 25.7163 56.7194 25.823 56.4059C25.9558 56.0161 25.7328 55.5969 25.3245 55.4702Z" fill="black"/>
<path d="M18.0932 53.3368L6.4082 50.2645C5.99427 50.1546 5.56605 50.3877 5.45223 50.7828C5.33809 51.1783 5.58128 51.5868 5.99521 51.6954L17.6802 54.7678C17.7492 54.7862 17.8189 54.7945 17.8873 54.7945C18.2285 54.7945 18.5416 54.5784 18.6365 54.2494C18.75 53.8543 18.5071 53.4458 18.0932 53.3368Z" fill="black"/>
<path d="M25.1686 59.672H13.0402C12.6107 59.672 12.2627 60.0042 12.2627 60.4142C12.2627 60.8242 12.6107 61.1564 13.0402 61.1564H25.1686C25.5981 61.1564 25.9461 60.8242 25.9461 60.4142C25.9461 60.0042 25.5981 59.672 25.1686 59.672Z" fill="black"/>
<path d="M7.43874 43.8475C6.03993 43.5987 4.93748 42.568 4.67159 41.2597C4.65822 41.194 4.56212 41.194 4.54875 41.2597C4.28286 42.5677 3.18041 43.5987 1.78159 43.8475C1.71131 43.86 1.71131 43.9499 1.78159 43.9624C3.18041 44.2112 4.28286 45.2419 4.54875 46.5503C4.56212 46.6159 4.65822 46.6159 4.67159 46.5503C4.93748 45.2422 6.03993 44.2112 7.43874 43.9624C7.50903 43.9499 7.50903 43.86 7.43874 43.8475Z" fill="#F5C84C"/>
<path d="M57.8217 31.106C56.8828 30.9392 56.1427 30.2469 55.9642 29.369C55.9551 29.3248 55.8908 29.3248 55.8817 29.369C55.7032 30.2471 54.9631 30.9392 54.0242 31.106C53.977 31.1143 53.977 31.1746 54.0242 31.1832C54.9631 31.3503 55.7032 32.0423 55.8817 32.9205C55.8908 32.9644 55.9551 32.9644 55.9642 32.9205C56.1427 32.0423 56.8828 31.3503 57.8217 31.1832C57.8689 31.1746 57.8689 31.1143 57.8217 31.106Z" fill="#F5C84C"/>
<path d="M53.686 4.54265H52.9617V3.85093C52.9617 3.33318 52.5223 2.9137 51.9799 2.9137C51.4376 2.9137 50.9981 3.33318 50.9981 3.85093V4.54265H50.2735C49.7312 4.54265 49.2917 4.96213 49.2917 5.47988C49.2917 5.99763 49.7312 6.41712 50.2735 6.41712H50.9981V7.10884C50.9981 7.62659 51.4376 8.04607 51.9799 8.04607C52.5223 8.04607 52.9617 7.62629 52.9617 7.10884V6.41712H53.686C54.2283 6.41712 54.6678 5.99763 54.6678 5.47988C54.6678 4.96213 54.2283 4.54265 53.686 4.54265Z" fill="#70D6F9"/>
<path d="M10.554 35.6428C9.97399 35.6428 9.50378 36.0917 9.50378 36.6454C9.50378 37.199 9.97399 37.6479 10.554 37.6479C11.134 37.6479 11.6042 37.199 11.6042 36.6454C11.6042 36.0917 11.134 35.6428 10.554 35.6428Z" fill="#FC657E"/>
<path d="M39.3203 25.5491C38.4666 25.5491 37.7747 26.2096 37.7747 27.0245C37.7747 27.8395 38.4666 28.5 39.3203 28.5C40.1739 28.5 40.8659 27.8395 40.8659 27.0245C40.8659 26.2096 40.1739 25.5491 39.3203 25.5491Z" fill="black"/>
<path d="M29.6794 25.5491C28.8257 25.5491 28.1338 26.2096 28.1338 27.0245C28.1338 27.8395 28.8257 28.5 29.6794 28.5C30.533 28.5 31.225 27.8395 31.225 27.0245C31.225 26.2096 30.533 25.5491 29.6794 25.5491Z" fill="black"/>
<path d="M42.8964 2.00509C43.4764 2.00509 43.9466 1.55624 43.9466 1.00255C43.9466 0.448856 43.4764 0 42.8964 0C42.3164 0 41.8462 0.448856 41.8462 1.00255C41.8462 1.55624 42.3164 2.00509 42.8964 2.00509Z" fill="#87D147"/>
<path d="M38.9632 33.1704C38.7707 32.8038 38.3033 32.6559 37.9198 32.8394C36.9324 33.3117 35.7501 33.5614 34.4999 33.5614C33.2497 33.5614 32.0674 33.3117 31.08 32.8394C30.6959 32.6556 30.2291 32.8038 30.0366 33.1704C29.8441 33.5368 29.9993 33.9827 30.3834 34.1664C31.5857 34.7418 33.009 35.0458 34.4999 35.0458C35.9908 35.0458 37.4142 34.7418 38.6164 34.1664C39.0002 33.9827 39.1554 33.5368 38.9632 33.1704Z" fill="black"/>
<path d="M16.3073 55.9609C15.8778 55.9609 15.5298 56.2931 15.5298 56.7031V64.3539C15.5298 64.7639 15.8778 65.0961 16.3073 65.0961C16.7367 65.0961 17.0847 64.7639 17.0847 64.3539V56.7031C17.0847 56.2931 16.7367 55.9609 16.3073 55.9609Z" fill="black"/>
<path d="M52.6926 55.9609C52.2632 55.9609 51.9152 56.2931 51.9152 56.7031V64.3539C51.9152 64.7639 52.2632 65.0961 52.6926 65.0961C53.1221 65.0961 53.4701 64.7639 53.4701 64.3539V56.7031C53.4701 56.2931 53.1221 55.9609 52.6926 55.9609Z" fill="black"/>
</svg>
