<svg width="84" height="80" viewBox="0 0 84 80" fill="none" xmlns="http://www.w3.org/2000/svg">
<path d="M8.64382 69.3109C6.02475 69.3109 3.89404 67.121 3.89404 64.4291V20.2102C3.89404 17.5183 6.02475 15.3284 8.64382 15.3284H75.3565C77.9756 15.3284 80.1063 17.5183 80.1063 20.2102V64.4291C80.1063 67.121 77.9756 69.3109 75.3565 69.3109H8.64382Z" fill="#CECECE"/>
<path d="M75.3563 15.3284H70.2582C72.877 15.3284 75.008 17.5183 75.008 20.2102V64.4291C75.008 67.1206 72.8773 69.3109 70.2582 69.3109H75.3563C77.9754 69.3109 80.1061 67.121 80.1061 64.4291V20.2102C80.1061 17.5187 77.9754 15.3284 75.3563 15.3284Z" fill="#E2E2E2"/>
<path d="M8.64382 15.3284H13.7419C11.1232 15.3284 8.9921 17.5183 8.9921 20.2102V64.4291C8.9921 67.1206 11.1228 69.3109 13.7419 69.3109H8.64382C6.02475 69.3109 3.89404 67.121 3.89404 64.4291V20.2102C3.89404 17.5187 6.02475 15.3284 8.64382 15.3284Z" fill="#AFAFAF"/>
<path d="M77.1829 20.2189V64.4207C77.1829 65.4625 76.3612 66.307 75.3476 66.307H8.65197C7.63841 66.307 6.81671 65.4625 6.81671 64.4207V20.2189C6.81671 19.1772 7.63841 18.3326 8.65197 18.3326H75.3476C76.3612 18.3326 77.1829 19.1772 77.1829 20.2189Z" fill="#63BCE7"/>
<path d="M75.3479 18.3326H70.2498C71.2634 18.3326 72.0851 19.1772 72.0851 20.2189V64.4207C72.0851 65.4625 71.2634 66.307 70.2498 66.307H75.3479C76.3614 66.307 77.1831 65.4625 77.1831 64.4207V20.2189C77.1831 19.1772 76.3614 18.3326 75.3479 18.3326Z" fill="#63E2E7"/>
<path d="M8.65197 18.3326H13.75C12.7365 18.3326 11.9148 19.1772 11.9148 20.2189V64.4207C11.9148 65.4625 12.7365 66.307 13.75 66.307H8.65197C7.63841 66.307 6.81671 65.4625 6.81671 64.4207V20.2189C6.81671 19.1772 7.63841 18.3326 8.65197 18.3326Z" fill="#6377E7"/>
<path d="M42 69.3109H0.521423L1.58261 71.8202C2.53882 74.0813 4.70915 75.5438 7.10785 75.5438H42H76.8925C79.2912 75.5438 81.4616 74.0813 82.4178 71.8202L83.479 69.3109H42Z" fill="#CECECE"/>
<path d="M78.3804 69.3109L77.3192 71.8202C76.363 74.0813 74.1926 75.5438 71.7939 75.5438H76.892C79.2907 75.5438 81.461 74.0813 82.4172 71.8202L83.4784 69.3109H78.3804Z" fill="#E2E2E2"/>
<path d="M5.61887 69.3109L6.68005 71.8202C7.63627 74.0813 9.8066 75.5438 12.2053 75.5438H7.10724C4.70854 75.5438 2.53821 74.0813 1.582 71.8202L0.520813 69.3109H5.61887Z" fill="#AFAFAF"/>
<path d="M26.1647 69.3109L27.6315 71.2358C28.2047 71.9881 29.0827 72.4276 30.0125 72.4276H53.9873C54.9171 72.4276 55.7951 71.9881 56.3682 71.2358L57.8354 69.3109H26.1647Z" fill="#707070"/>
<path d="M56.2115 60.6149C62.8357 60.6149 68.2057 55.0957 68.2057 48.2873C68.2057 41.479 62.8357 35.9597 56.2115 35.9597C49.5873 35.9597 44.2173 41.479 44.2173 48.2873C44.2173 55.0957 49.5873 60.6149 56.2115 60.6149Z" fill="#CECECE"/>
<path d="M27.7885 60.6149C34.4127 60.6149 39.7827 55.0957 39.7827 48.2873C39.7827 41.479 34.4127 35.9597 27.7885 35.9597C21.1643 35.9597 15.7943 41.479 15.7943 48.2873C15.7943 55.0957 21.1643 60.6149 27.7885 60.6149Z" fill="#F8AF23"/>
<path d="M32.9357 55.3641H22.6408C21.6811 55.3641 20.9029 54.5642 20.9029 53.5778V42.9968C20.9029 42.0105 21.6811 41.2106 22.6408 41.2106H32.9357C33.8953 41.2106 34.6736 42.0105 34.6736 42.9968V53.5778C34.6736 54.5646 33.8953 55.3641 32.9357 55.3641Z" fill="#CECECE"/>
<path d="M61.3586 55.3825H51.0637C50.1041 55.3825 49.3258 54.5826 49.3258 53.5963V43.0153C49.3258 42.0289 50.1041 41.229 51.0637 41.229H61.3586C62.3183 41.229 63.0965 42.0289 63.0965 43.0153V53.5963C63.0965 54.583 62.3183 55.3825 61.3586 55.3825Z" fill="#F46275"/>
<path d="M41.9998 36.2873C51.6052 36.2873 59.392 28.2841 59.392 18.4116C59.392 8.53911 51.6052 0.535889 41.9998 0.535889C32.3943 0.535889 24.6075 8.53911 24.6075 18.4116C24.6075 28.2841 32.3943 36.2873 41.9998 36.2873Z" fill="#CECECE"/>
<path d="M29.7056 18.4116C29.7056 9.42926 36.1519 1.99668 44.5486 0.728803C43.7165 0.603051 42.8659 0.535889 41.9998 0.535889C32.3942 0.535889 24.6075 8.539 24.6075 18.4116C24.6075 28.2838 32.3942 36.2873 41.9998 36.2873C42.8659 36.2873 43.7165 36.2201 44.5486 36.0944C36.1519 34.8265 29.7056 27.3939 29.7056 18.4116Z" fill="#AFAFAF"/>
<path d="M50.5844 21.548C52.5052 21.548 54.0624 19.9475 54.0624 17.9733C54.0624 15.9991 52.5052 14.3987 50.5844 14.3987C48.6636 14.3987 47.1064 15.9991 47.1064 17.9733C47.1064 19.9475 48.6636 21.548 50.5844 21.548Z" fill="#F8AF23"/>
<path d="M47.332 26.3752L39.1974 21.9878V13.9554L47.332 9.56763V26.3752Z" fill="#F8AF23"/>
<path d="M47.3317 9.56763H50.5841V26.3752H47.3317V9.56763Z" fill="#F46275"/>
<path d="M32.3559 13.9552H39.1974V21.9912H32.3559V13.9552Z" fill="#CECECE"/>
<path d="M28.2637 15.9615H32.3555V19.9813H28.2637V15.9615Z" fill="#F46275"/>
<path d="M34.267 21.9907H37.2848V28.2769H34.267V21.9907Z" fill="#CECECE"/>
<path d="M82.8955 72.034L83.9567 69.5251C84.0269 69.3593 84.0109 69.1685 83.9146 69.0174C83.8184 68.8667 83.6543 68.7756 83.4788 68.7756H78.4902C79.7839 67.7874 80.6275 66.2098 80.6275 64.4296V20.2103C80.6275 17.223 78.2629 14.7926 75.3564 14.7926H59.5641C57.9235 6.36762 50.6725 0 42.0002 0C33.3279 0 26.0765 6.36798 24.4359 14.7926H8.64364C5.73712 14.7926 3.37249 17.223 3.37249 20.2103V64.4293C3.37249 66.2094 4.21608 67.7871 5.5098 68.7752H0.521232C0.3457 68.7752 0.181639 68.8663 0.0853578 69.0174C-0.0109238 69.1682 -0.0269129 69.3593 0.0432996 69.5247L1.10448 72.0337C1.63177 73.2809 2.49935 74.3026 3.5654 75.0078H0.748206C0.460056 75.0078 0.226826 75.2475 0.226826 75.5437C0.226826 75.8398 0.460056 76.0795 0.748206 76.0795H7.10731H76.8923H83.2514C83.5396 76.0795 83.7728 75.8398 83.7728 75.5437C83.7728 75.2475 83.5396 75.0078 83.2514 75.0078H80.4346C81.501 74.3029 82.3682 73.2812 82.8955 72.034ZM75.3477 18.8685C76.072 18.8685 76.6615 19.4744 76.6615 20.2189V64.4207C76.6615 65.1652 76.072 65.7711 75.3477 65.7711H8.65199C7.92761 65.7711 7.33811 65.1652 7.33811 64.4207V20.2189C7.33811 19.4744 7.92761 18.8685 8.65199 18.8685H24.0977C24.3351 28.8097 32.2716 36.8232 41.9998 36.8232C51.7281 36.8232 59.6645 28.8097 59.9019 18.8685H75.3477ZM41.9998 1.07211C51.3023 1.07211 58.8707 8.8505 58.8707 18.4119C58.8707 27.9734 51.3023 35.7514 41.9998 35.7514C32.6974 35.7514 25.129 27.9727 25.129 18.4116C25.129 8.8505 32.6974 1.07211 41.9998 1.07211ZM4.41525 64.4293V20.2103C4.41525 17.8139 6.31203 15.8644 8.64364 15.8644H24.2618C24.1759 16.4989 24.1224 17.1433 24.1015 17.7968H8.65199C7.35236 17.7968 6.29535 18.8835 6.29535 20.2189V64.4207C6.29535 65.7561 7.35271 66.8428 8.65199 66.8428H75.3477C76.6473 66.8428 77.7043 65.7561 77.7043 64.4207V20.2189C77.7043 18.8831 76.6469 17.7968 75.3477 17.7968H59.8981C59.8773 17.1437 59.8237 16.4989 59.7379 15.8644H75.356C77.6876 15.8644 79.5844 17.8139 79.5844 20.2103V64.4293C79.5844 66.8257 77.6876 68.7752 75.356 68.7752H57.8352H26.1645H8.64364C6.31203 68.7752 4.41525 66.8257 4.41525 64.4293ZM56.7646 69.847L55.9579 70.9055C55.4799 71.5321 54.7618 71.8919 53.9874 71.8919H30.0126C29.2378 71.8919 28.5197 71.5325 28.0421 70.9055L27.2354 69.847H56.7646ZM76.8923 75.0081H7.10731C5.44341 75.0081 3.90256 74.2379 2.87405 72.9636H13.0027C13.2909 72.9636 13.5241 72.7239 13.5241 72.4277C13.5241 72.1316 13.2909 71.8919 13.0027 71.8919H2.19347C2.14759 71.7979 2.10171 71.7039 2.06035 71.6068L1.31616 69.8473H8.64364H25.9107L27.2211 71.5668C27.8979 72.4549 28.9153 72.964 30.0126 72.964H53.9874C55.0847 72.964 56.1021 72.4549 56.7789 71.5668L58.0893 69.8473H75.3564H82.6838L81.9397 71.6068C81.8986 71.7039 81.8528 71.7979 81.8065 71.8919H70.9973C70.7091 71.8919 70.4759 72.1316 70.4759 72.4277C70.4759 72.7239 70.7091 72.9636 70.9973 72.9636H81.126C80.0971 74.2379 78.5559 75.0081 76.8923 75.0081Z" fill="#3F3679"/>
<path d="M20.1783 71.892H16.572C16.2839 71.892 16.0507 72.1317 16.0507 72.4278C16.0507 72.724 16.2839 72.9637 16.572 72.9637H20.1783C20.4664 72.9637 20.6996 72.724 20.6996 72.4278C20.6996 72.1317 20.4661 71.892 20.1783 71.892Z" fill="#3F3679"/>
<path d="M67.4274 71.892H63.8212C63.533 71.892 63.2998 72.1317 63.2998 72.4278C63.2998 72.724 63.533 72.9637 63.8212 72.9637H67.4274C67.7155 72.9637 67.9488 72.724 67.9488 72.4278C67.9488 72.1317 67.7155 71.892 67.4274 71.892Z" fill="#3F3679"/>
<path d="M7.00579 78.9283H0.748187C0.460037 78.9283 0.226807 79.1681 0.226807 79.4642C0.226807 79.7604 0.460037 80.0001 0.748187 80.0001H7.00579C7.29394 80.0001 7.52717 79.7604 7.52717 79.4642C7.52717 79.1681 7.29394 78.9283 7.00579 78.9283Z" fill="#3F3679"/>
<path d="M83.252 78.9283H76.9944C76.7063 78.9283 76.473 79.1681 76.473 79.4642C76.473 79.7604 76.7063 80.0001 76.9944 80.0001H83.252C83.5402 80.0001 83.7734 79.7604 83.7734 79.4642C83.7734 79.1681 83.5402 78.9283 83.252 78.9283Z" fill="#3F3679"/>
<path d="M73.449 78.9283H10.5503C10.2622 78.9283 10.0289 79.1681 10.0289 79.4642C10.0289 79.7604 10.2622 80.0001 10.5503 80.0001H73.4493C73.7375 80.0001 73.9707 79.7604 73.9707 79.4642C73.9707 79.1681 73.7371 78.9283 73.449 78.9283Z" fill="#3F3679"/>
<path d="M43.6952 48.2877C43.6952 55.3805 49.3098 61.1512 56.2108 61.1512C63.1117 61.1512 68.7263 55.3805 68.7263 48.2877C68.7263 41.1948 63.1117 35.4242 56.2108 35.4242C49.3098 35.4242 43.6952 41.1948 43.6952 48.2877ZM56.2108 36.4959C62.5368 36.4959 67.6836 41.7857 67.6836 48.2877C67.6836 54.7896 62.5368 60.0794 56.2108 60.0794C49.8847 60.0794 44.738 54.7896 44.738 48.2877C44.738 41.7857 49.8847 36.4959 56.2108 36.4959Z" fill="#3F3679"/>
<path d="M27.7881 35.4242C20.8872 35.4242 15.2726 41.1948 15.2726 48.2877C15.2726 55.3805 20.8872 61.1512 27.7881 61.1512C34.6891 61.1512 40.3037 55.3805 40.3037 48.2877C40.3037 41.1948 34.6891 35.4242 27.7881 35.4242ZM27.7881 60.0794C21.4621 60.0794 16.3153 54.7896 16.3153 48.2877C16.3153 41.7857 21.4621 36.4959 27.7881 36.4959C34.1142 36.4959 39.261 41.7857 39.261 48.2877C39.261 54.7896 34.1142 60.0794 27.7881 60.0794Z" fill="#3F3679"/>
<path d="M32.9359 40.675H22.6411C21.3953 40.675 20.3818 41.7168 20.3818 42.9972V53.5782C20.3818 54.8586 21.3953 55.9003 22.6411 55.9003H32.9359C34.1817 55.9003 35.1952 54.8586 35.1952 53.5782V42.9972C35.1952 41.7168 34.1817 40.675 32.9359 40.675ZM34.1525 53.5778C34.1525 54.2673 33.6068 54.8282 32.9359 54.8282H22.6411C21.9702 54.8282 21.4245 54.2673 21.4245 53.5778V42.9968C21.4245 42.3073 21.9702 41.7464 22.6411 41.7464H32.9359C33.6068 41.7464 34.1525 42.3073 34.1525 42.9968V53.5778Z" fill="#3F3679"/>
<path d="M30.0418 43.1156C28.2993 43.1156 26.8819 44.5725 26.8819 46.3634V47.0461H25.6027C25.3146 47.0461 25.0814 47.2858 25.0814 47.5819C25.0814 47.8781 25.3146 48.1178 25.6027 48.1178H26.8819V52.9235C26.8819 53.2197 27.1151 53.4594 27.4032 53.4594C27.6914 53.4594 27.9246 53.2197 27.9246 52.9235V48.1178H29.2041C29.4922 48.1178 29.7255 47.8781 29.7255 47.5819C29.7255 47.2858 29.4922 47.0461 29.2041 47.0461H27.9246V46.3634C27.9246 45.1634 28.8742 44.1873 30.0418 44.1873C30.3299 44.1873 30.5632 43.9476 30.5632 43.6515C30.5632 43.3553 30.3296 43.1156 30.0418 43.1156Z" fill="#3F3679"/>
<path d="M51.064 55.9185H61.3588C62.6046 55.9185 63.6182 54.8768 63.6182 53.5964V43.0154C63.6182 41.735 62.6046 40.6932 61.3588 40.6932H51.064C49.8183 40.6932 48.8047 41.735 48.8047 43.0154V53.5964C48.8047 54.8768 49.8183 55.9185 51.064 55.9185ZM49.8474 43.0154C49.8474 42.3259 50.3932 41.765 51.064 41.765H61.3588C62.0297 41.765 62.5754 42.3259 62.5754 43.0154V53.5964C62.5754 54.2859 62.0297 54.8468 61.3588 54.8468H51.064C50.3932 54.8468 49.8474 54.2859 49.8474 53.5964V43.0154Z" fill="#3F3679"/>
<path d="M56.2112 52.6006C58.515 52.6006 60.3895 50.6739 60.3895 48.3061C60.3895 45.9382 58.515 44.0116 56.2112 44.0116C53.9074 44.0116 52.0328 45.9382 52.0328 48.3061C52.0328 50.6739 53.9074 52.6006 56.2112 52.6006ZM56.2112 45.0833C57.9401 45.0833 59.3468 46.5291 59.3468 48.3061C59.3468 50.0831 57.9401 51.5288 56.2112 51.5288C54.4823 51.5288 53.0756 50.0831 53.0756 48.3061C53.0756 46.5291 54.4823 45.0833 56.2112 45.0833Z" fill="#3F3679"/>
<path d="M60.8031 44.8743C61.2025 44.8743 61.5264 44.5414 61.5264 44.1309C61.5264 43.7204 61.2025 43.3875 60.8031 43.3875C60.4037 43.3875 60.0798 43.7204 60.0798 44.1309C60.0798 44.5414 60.4034 44.8743 60.8031 44.8743Z" fill="#3F3679"/>
<path d="M28.2639 20.5167H31.8343V21.9907C31.8343 22.2869 32.0676 22.5266 32.3557 22.5266H33.7461V28.2769C33.7461 28.5731 33.9793 28.8128 34.2675 28.8128H37.2852C37.5734 28.8128 37.8066 28.5731 37.8066 28.2769V22.5266H39.0749L47.0896 26.8493V26.8468C47.1622 26.8865 47.2439 26.9108 47.3319 26.9108H50.5842C50.8724 26.9108 51.1056 26.6711 51.1056 26.3749V22.0443C53.0646 21.7803 54.5836 20.0573 54.5836 17.9727C54.5836 15.8882 53.065 14.1652 51.1056 13.9012V9.56737C51.1056 9.27121 50.8724 9.03149 50.5842 9.03149H47.3319C47.2439 9.03149 47.1622 9.05614 47.0896 9.09544V9.09294L39.0687 13.4189H32.3554C32.0672 13.4189 31.834 13.6586 31.834 13.9548V15.4252H28.2639C27.9758 15.4252 27.7426 15.6649 27.7426 15.9611V19.9805C27.7426 20.277 27.9758 20.5167 28.2639 20.5167ZM53.5408 17.9727C53.5408 19.465 52.4876 20.7071 51.1056 20.9611V14.9843C52.4876 15.2387 53.5408 16.4805 53.5408 17.9727ZM47.8532 10.1032H50.0629V25.839H47.8532V10.1032ZM36.7642 27.7414H34.7892V22.5266H36.7642V27.7414ZM46.8105 25.4886L39.7187 21.6635V14.2788L46.8105 10.4537V25.4886ZM32.8771 14.491H38.6759V21.4552H37.2856H34.2678H32.8775V19.9812V15.9614L32.8771 14.491ZM28.7853 16.4973H31.8343V19.445H28.7853V16.4973Z" fill="#3F3679"/>
</svg>
