<svg width="93" height="66" viewBox="0 0 93 66" fill="none" xmlns="http://www.w3.org/2000/svg">
<path d="M91.5469 11.3438V62.9063C91.5446 63.4528 91.2376 63.9764 90.6931 64.3629C90.1486 64.7493 89.4107 64.9671 88.6406 64.9688H4.35938C3.5893 64.9671 2.85142 64.7493 2.30689 64.3629C1.76236 63.9764 1.45542 63.4528 1.45312 62.9063V11.3438H91.5469Z" fill="#DFE1EA"/>
<path d="M88.6406 1.03125C89.4107 1.03288 90.1486 1.2507 90.6931 1.63715C91.2376 2.02359 91.5446 2.54724 91.5469 3.09375V11.3438H1.45312V3.09375C1.45542 2.54724 1.76236 2.02359 2.30689 1.63715C2.85142 1.2507 3.5893 1.03288 4.35938 1.03125H88.6406Z" fill="#ADB2C7"/>
<path d="M57.5437 21.6562C46.5 21.6562 46.5 19.5937 35.4562 19.5937C24.4125 19.5937 24.4125 21.6562 13.3687 21.6562C9.33375 21.7003 5.31369 21.2981 1.45312 20.4641V28.7141C5.31369 29.5481 9.33375 29.9503 13.3687 29.9062C24.4125 29.9062 24.4125 27.8437 35.4562 27.8437C46.5 27.8437 46.5 29.9062 57.5437 29.9062C68.5875 29.9062 68.5875 27.8437 79.6312 27.8437C83.6663 27.8007 87.6862 28.2032 91.5469 29.0369V20.7869C87.6862 19.9532 83.6663 19.5507 79.6312 19.5937C68.5875 19.5937 68.5875 21.6562 57.5437 21.6562Z" fill="#CDD2E1"/>
<path d="M1.45312 11.3438V20.4641C5.31369 21.2982 9.33375 21.7004 13.3687 21.6562C24.4125 21.6562 24.4125 19.5937 35.4562 19.5937C46.5 19.5937 46.5 21.6562 57.5437 21.6562C68.5875 21.6562 68.5875 19.5937 79.6312 19.5937C83.6663 19.5507 87.6862 19.9532 91.5469 20.7869V11.3438H1.45312Z" fill="#F6FAFD"/>
<path d="M88.7188 16.4999H56.5932C56.4126 16.4997 56.2337 16.5249 56.0669 16.5739C55.9 16.6228 55.7484 16.6947 55.6207 16.7853C55.493 16.8759 55.3918 16.9835 55.3228 17.1019C55.2537 17.2204 55.2183 17.3473 55.2185 17.4754V38.2118C55.2187 38.34 55.1833 38.4669 55.1143 38.5853C55.0452 38.7037 54.944 38.8113 54.8163 38.9019C54.6886 38.9926 54.537 39.0644 54.3701 39.1134C54.2033 39.1624 54.0244 39.1875 53.8439 39.1874H49.3275C49.147 39.1872 48.9681 39.2124 48.8013 39.2614C48.6344 39.3103 48.4828 39.3822 48.3551 39.4728C48.2274 39.5634 48.1261 39.671 48.0571 39.7894C47.9881 39.9079 47.9527 40.0348 47.9529 40.1629V63.9931C47.9527 64.1212 47.9881 64.2481 48.0571 64.3666C48.1261 64.485 48.2274 64.5926 48.3551 64.6832C48.4828 64.7738 48.6344 64.8457 48.8013 64.8946C48.9681 64.9436 49.147 64.9688 49.3275 64.9686H81.4532C81.6338 64.9688 81.8126 64.9436 81.9795 64.8946C82.1464 64.8457 82.298 64.7738 82.4257 64.6832C82.5534 64.5926 82.6546 64.485 82.7236 64.3666C82.7926 64.2481 82.8281 64.1212 82.8279 63.9931V43.2567C82.8277 43.1285 82.8631 43.0016 82.9321 42.8832C83.0011 42.7648 83.1024 42.6572 83.2301 42.5666C83.3578 42.4759 83.5094 42.4041 83.6763 42.3551C83.8431 42.3061 84.022 42.281 84.2025 42.2811H88.7188C88.8994 42.2813 89.0783 42.2561 89.2451 42.2071C89.412 42.1582 89.5636 42.0863 89.6913 41.9957C89.819 41.9051 89.9202 41.7975 89.9893 41.6791C90.0583 41.5606 90.0937 41.4337 90.0935 41.3056V17.4754C90.0937 17.3473 90.0583 17.2204 89.9893 17.1019C89.9202 16.9835 89.819 16.8759 89.6913 16.7853C89.5636 16.6947 89.412 16.6228 89.2451 16.5739C89.0783 16.5249 88.8994 16.4997 88.7188 16.4999Z" fill="#ADB2C7"/>
<path d="M29.0623 45.3749C39.4953 45.3749 47.9529 39.3727 47.9529 31.9686C47.9529 24.5646 39.4953 18.5624 29.0623 18.5624C18.6293 18.5624 10.1716 24.5646 10.1716 31.9686C10.1716 39.3727 18.6293 45.3749 29.0623 45.3749Z" fill="#ADB2C7"/>
<path d="M55.219 23.7188H84.2815V38.1562H55.219V23.7188Z" fill="white"/>
<path d="M55.219 15.4688H84.2815V23.7188H55.219V15.4688Z" fill="#FFA426"/>
<path d="M59.5784 26.8125H79.9221V35.0625H59.5784V26.8125Z" fill="#DFE1EA"/>
<path d="M47.9529 46.4062H77.0154V60.8438H47.9529V46.4062Z" fill="white"/>
<path d="M47.9529 38.1562H77.0154V46.4062H47.9529V38.1562Z" fill="#8DD5F6"/>
<path d="M52.3123 49.5H72.656V57.75H52.3123V49.5Z" fill="#DFE1EA"/>
<path d="M26.156 42.2813C36.589 42.2813 45.0466 36.2791 45.0466 28.875C45.0466 21.4709 36.589 15.4688 26.156 15.4688C15.723 15.4688 7.26538 21.4709 7.26538 28.875C7.26538 36.2791 15.723 42.2813 26.156 42.2813Z" fill="white"/>
<path d="M7.26538 5.15613H10.1716V7.21863H7.26538V5.15613Z" fill="white"/>
<path d="M20.344 5.15613H85.7346V7.21863H20.344V5.15613Z" fill="white"/>
<path d="M59.5784 18.5624H62.4846V20.6249H59.5784V18.5624Z" fill="white"/>
<path d="M65.3906 18.5624H68.2969V20.6249H65.3906V18.5624Z" fill="white"/>
<path d="M58.1252 41.25H61.0315V43.3125H58.1252V41.25Z" fill="white"/>
<path d="M52.3123 41.25H55.2185V43.3125H52.3123V41.25Z" fill="white"/>
<path d="M88.6406 0H4.35938C3.2032 0 2.09437 0.325948 1.27683 0.906138C0.45929 1.48633 0 2.27324 0 3.09375L0 62.9062C0 63.7268 0.45929 64.5137 1.27683 65.0939C2.09437 65.674 3.2032 66 4.35938 66H88.6406C89.7968 66 90.9056 65.674 91.7232 65.0939C92.5407 64.5137 93 63.7268 93 62.9062V3.09375C93 2.27324 92.5407 1.48633 91.7232 0.906138C90.9056 0.325948 89.7968 0 88.6406 0ZM4.35938 2.0625H88.6406C89.026 2.0625 89.3956 2.17115 89.6681 2.36455C89.9407 2.55794 90.0938 2.82025 90.0938 3.09375V10.3125H2.90625V3.09375C2.90625 2.82025 3.05935 2.55794 3.33186 2.36455C3.60437 2.17115 3.97398 2.0625 4.35938 2.0625ZM88.6406 63.9375H4.35938C3.97398 63.9375 3.60437 63.8288 3.33186 63.6355C3.05935 63.4421 2.90625 63.1798 2.90625 62.9062V12.375H90.0938V62.9062C90.0938 63.1798 89.9407 63.4421 89.6681 63.6355C89.3956 63.8288 89.026 63.9375 88.6406 63.9375Z" fill="black"/>
<path d="M26.1563 43.3125C30.1799 43.3125 34.1131 42.4658 37.4586 40.8794C40.8041 39.2929 43.4117 37.0381 44.9514 34.4C46.4912 31.7619 46.8941 28.859 46.1091 26.0584C45.3241 23.2578 43.3866 20.6853 40.5415 18.6662C37.6963 16.647 34.0714 15.272 30.1251 14.7149C26.1788 14.1578 22.0884 14.4438 18.371 15.5365C14.6537 16.6292 11.4764 18.4797 9.24104 20.854C7.00564 23.2282 5.8125 26.0195 5.8125 28.875C5.81827 32.7028 7.96348 36.3727 11.7774 39.0793C15.5914 41.786 20.7625 43.3084 26.1563 43.3125ZM26.1563 16.5C29.6051 16.5 32.9764 17.2258 35.844 18.5856C38.7116 19.9454 40.9466 21.8781 42.2664 24.1393C43.5862 26.4005 43.9315 28.8887 43.2587 31.2892C42.5859 33.6898 40.9251 35.8948 38.4864 37.6255C36.0477 39.3561 32.9407 40.5347 29.5581 41.0122C26.1756 41.4897 22.6695 41.2447 19.4832 40.308C16.2969 39.3714 13.5736 37.7852 11.6575 35.7502C9.74144 33.7151 8.71875 31.3226 8.71875 28.875C8.72375 25.594 10.5625 22.4485 13.8316 20.1285C17.1007 17.8085 21.5331 16.5036 26.1563 16.5Z" fill="black"/>
<path d="M21.3713 33.3021L15.133 28.875L21.3713 24.4478L19.3166 22.9896L12.0509 28.1459C11.7785 28.3393 11.6255 28.6015 11.6255 28.875C11.6255 29.1484 11.7785 29.4107 12.0509 29.6041L19.3166 34.7603L21.3713 33.3021Z" fill="black"/>
<path d="M32.9957 34.7603L40.2613 29.6041C40.5337 29.4107 40.6868 29.1484 40.6868 28.875C40.6868 28.6015 40.5337 28.3393 40.2613 28.1459L32.9957 22.9896L30.941 24.4478L37.1792 28.875L30.941 33.3021L32.9957 34.7603Z" fill="black"/>
<path d="M84.281 14.4375H55.2185C54.8331 14.4375 54.4635 14.5461 54.191 14.7395C53.9185 14.9329 53.7654 15.1952 53.7654 15.4688V37.125H47.9529C47.5675 37.125 47.1979 37.2336 46.9254 37.427C46.6529 37.6204 46.4998 37.8827 46.4998 38.1562V60.8438C46.4998 61.1173 46.6529 61.3796 46.9254 61.573C47.1979 61.7663 47.5675 61.875 47.9529 61.875H77.0154C77.4008 61.875 77.7704 61.7663 78.0429 61.573C78.3154 61.3796 78.4685 61.1173 78.4685 60.8438V39.1875H84.281C84.6664 39.1875 85.036 39.0789 85.3085 38.8855C85.581 38.6921 85.7341 38.4298 85.7341 38.1562V15.4688C85.7341 15.1952 85.581 14.9329 85.3085 14.7395C85.036 14.5461 84.6664 14.4375 84.281 14.4375ZM82.8279 16.5V22.6875H56.6716V16.5H82.8279ZM49.406 59.8125V47.4375H75.5623V59.8125H49.406ZM75.5623 45.375H49.406V39.1875H75.5623V45.375ZM77.0154 37.125H56.6716V24.75H82.8279V37.125H77.0154Z" fill="black"/>
<path d="M10.1716 57.7501H40.6873V59.8126H10.1716V57.7501Z" fill="black"/>
<path d="M10.1716 52.5938H40.6873V54.6562H10.1716V52.5938Z" fill="black"/>
<path d="M21.7971 47.4375H40.6877V49.5H21.7971V47.4375Z" fill="black"/>
<path d="M10.1716 47.4375H15.9841V49.5H10.1716V47.4375Z" fill="black"/>
<path d="M13.0779 5.15613H15.9841V7.21863H13.0779V5.15613Z" fill="black"/>
<path d="M23.269 34.8929L26.1783 22.5178L29.0449 22.8572L26.1356 35.2324L23.269 34.8929Z" fill="black"/>
</svg>
