<svg width="69" height="87" viewBox="0 0 69 87" fill="none" xmlns="http://www.w3.org/2000/svg">
<path d="M63.0286 40.1015H5.9718L4.64496 37.3829L5.9718 34.6639H63.0286L64.3555 37.3829L63.0286 40.1015Z" fill="#656D78"/>
<path opacity="0.2" d="M5.20209 34.6639H63.6648V36.0234H5.20209V34.6639Z" fill="black"/>
<path opacity="0.2" d="M5.20209 38.7423H63.6648V40.1016H5.20209V38.7423Z" fill="black"/>
<path d="M60.3746 0.679688C58.1756 0.679688 56.3939 2.50497 56.3939 4.75781V6.11729H64.3555V4.75781C64.3553 2.50514 62.5736 0.679688 60.3746 0.679688Z" fill="#F6BB42"/>
<path opacity="0.2" d="M60.3746 0.679688C58.1756 0.679688 56.3939 2.50497 56.3939 4.75781V6.11729C56.3939 3.86446 58.1756 2.03917 60.3746 2.03917C62.5736 2.03917 64.3553 3.86446 64.3553 6.11729V4.75781C64.3553 2.50514 62.5736 0.679688 60.3746 0.679688Z" fill="black"/>
<path d="M17.9139 0.679688H60.3746C58.1718 0.679688 56.3939 2.50106 56.3939 4.75781V37.3829V40.1016H13.9332V37.3829V4.75781C13.9332 2.50106 15.7111 0.679688 17.9139 0.679688Z" fill="#FFCE54"/>
<path d="M12.6062 46.8983C5.97168 46.8983 5.20206 48.2578 5.20206 48.2578L4.75104 48.1901L4.95066 46.8176C5.50788 43.1191 8.95725 40.1016 12.6062 40.1016H13.9331H56.3938C60.0428 40.1016 63.4922 43.1191 64.0494 46.8176L64.249 48.1901L63.798 48.2578C63.798 48.2578 61.7013 46.8983 55.0669 46.8983C48.4326 46.8983 43.125 50.9764 34.5 50.9764C25.8752 50.9764 19.2406 46.8983 12.6062 46.8983Z" fill="#82878E"/>
<path d="M12.6062 46.8983C5.97168 46.8983 5.20206 48.2578 5.20206 48.2578L4.75104 48.1901L4.95066 46.8176C5.50788 43.1191 8.95725 40.1016 12.6062 40.1016H13.9331H56.3938C60.0428 40.1016 63.4922 43.1191 64.0494 46.8176L64.249 48.1901L63.798 48.2578C63.798 48.2578 61.7013 46.8983 55.0669 46.8983C48.4326 46.8983 43.125 50.9764 34.5 50.9764C25.8752 50.9764 19.2406 46.8983 12.6062 46.8983Z" fill="#82878E"/>
<path opacity="0.2" d="M7.60452 46.8176C8.16174 43.1191 11.6113 40.1016 15.2601 40.1016H13.9331H12.6062C8.95725 40.1016 5.50788 43.1191 4.95066 46.8176L4.75104 48.1901L5.20206 48.2578C5.20206 48.2578 5.53244 47.6948 7.53565 47.2925L7.60452 46.8176Z" fill="white"/>
<path opacity="0.2" d="M61.4489 46.8176C60.8919 43.1191 57.4422 40.1016 53.7933 40.1016H55.1202H56.447C60.096 40.1016 63.5454 43.1191 64.1026 46.8176L64.3022 48.1901L63.8512 48.2578C63.8512 48.2578 63.5208 47.6948 61.5176 47.2925L61.4489 46.8176Z" fill="black"/>
<path d="M6.35653 82.242H62.6434C65.8676 82.242 68.2038 79.8898 68.323 76.8046H68.3359V80.8827C68.2038 83.9677 65.8676 86.3202 62.6434 86.3202H6.35653C3.13267 86.3202 0.796255 83.9677 0.664001 80.8827V76.8044H0.676945C0.796255 79.8898 3.13267 82.242 6.35653 82.242Z" fill="#434A54"/>
<path d="M46.4421 61.8515C46.4421 61.1042 45.5533 60.4922 44.4518 60.4922C43.3503 60.4922 42.4616 61.1042 42.4616 61.8515C42.4616 62.5988 43.3503 63.211 44.4518 63.211C45.5533 63.211 46.4421 62.599 46.4421 61.8515ZM47.7689 57.7734C48.8706 57.7734 49.7594 57.1614 49.7594 56.414C49.7594 55.6667 48.8706 55.0547 47.7689 55.0547C46.6676 55.0547 45.7787 55.6667 45.7787 56.414C45.7787 57.1614 46.6676 57.7734 47.7689 57.7734ZM47.7689 68.6484C48.8706 68.6484 49.7594 68.0364 49.7594 67.2891C49.7594 66.5418 48.8706 65.9298 47.7689 65.9298C46.6676 65.9298 45.7787 66.5418 45.7787 67.2891C45.7787 68.0364 46.6676 68.6484 47.7689 68.6484ZM53.0767 61.8515C53.0767 61.1042 52.1877 60.4922 51.0862 60.4922C49.9847 60.4922 49.096 61.1042 49.096 61.8515C49.096 62.5988 49.9847 63.211 51.0862 63.211C52.1877 63.211 53.0767 62.599 53.0767 61.8515ZM54.4035 65.9296C53.302 65.9296 52.4132 66.5416 52.4132 67.2889C52.4132 68.0362 53.302 68.6482 54.4035 68.6482C55.505 68.6482 56.3938 68.0362 56.3938 67.2889C56.3938 66.5416 55.505 65.9296 54.4035 65.9296ZM54.4035 57.7734C55.505 57.7734 56.3938 57.1614 56.3938 56.414C56.3938 55.6667 55.505 55.0547 54.4035 55.0547C53.302 55.0547 52.4132 55.6667 52.4132 56.414C52.4132 57.1614 53.3022 57.7734 54.4035 57.7734ZM55.7304 61.8515C55.7304 62.5988 56.6193 63.211 57.7206 63.211C58.8221 63.211 59.711 62.5988 59.711 61.8515C59.711 61.1042 58.8221 60.4922 57.7206 60.4922C56.6194 60.4922 55.7304 61.1042 55.7304 61.8515ZM26.5386 61.8515C26.5386 61.1042 25.6497 60.4922 24.5482 60.4922C23.4467 60.4922 22.5579 61.1042 22.5579 61.8515C22.5579 62.5988 23.4467 63.211 24.5482 63.211C25.6497 63.211 26.5386 62.599 26.5386 61.8515ZM29.8559 67.2891C29.8559 66.5418 28.9671 65.9298 27.8656 65.9298C26.7641 65.9298 25.8752 66.5418 25.8752 67.2891C25.8752 68.0364 26.7641 68.6484 27.8656 68.6484C28.9671 68.6484 29.8559 68.0364 29.8559 67.2891ZM27.8656 57.7734C28.9671 57.7734 29.8559 57.1614 29.8559 56.414C29.8559 55.6667 28.9671 55.0547 27.8656 55.0547C26.7641 55.0547 25.8752 55.6667 25.8752 56.414C25.8752 57.1614 26.7641 57.7734 27.8656 57.7734ZM33.1731 61.8515C33.1731 61.1042 32.2842 60.4922 31.1827 60.4922C30.0812 60.4922 29.1923 61.1042 29.1923 61.8515C29.1923 62.5988 30.0812 63.211 31.1827 63.211C32.2842 63.211 33.1731 62.599 33.1731 61.8515ZM32.5097 56.414C32.5097 57.1614 33.3985 57.7734 34.5 57.7734C35.6015 57.7734 36.4903 57.1614 36.4903 56.414C36.4903 55.6667 35.6015 55.0547 34.5 55.0547C33.3987 55.0547 32.5097 55.6666 32.5097 56.414ZM36.4903 67.2891C36.4903 66.5418 35.6015 65.9298 34.5 65.9298C33.3987 65.9298 32.5097 66.5418 32.5097 67.2891C32.5097 68.0364 33.3985 68.6484 34.5 68.6484C35.6015 68.6484 36.4903 68.0364 36.4903 67.2891ZM39.8075 61.8515C39.8075 61.1042 38.9188 60.4922 37.8173 60.4922C36.7158 60.4922 35.8268 61.1042 35.8268 61.8515C35.8268 62.5988 36.7158 63.211 37.8173 63.211C38.9188 63.211 39.8075 62.599 39.8075 61.8515ZM43.125 56.414C43.125 55.6667 42.2361 55.0547 41.1346 55.0547C40.0331 55.0547 39.1443 55.6667 39.1443 56.414C39.1443 57.1614 40.0331 57.7734 41.1346 57.7734C42.2361 57.7734 43.125 57.1614 43.125 56.414ZM41.1344 65.9296C40.0329 65.9296 39.1441 66.5416 39.1441 67.2889C39.1441 68.0362 40.0329 68.6482 41.1344 68.6482C42.2359 68.6482 43.1248 68.0362 43.1248 67.2889C43.1248 66.5416 42.2359 65.9296 41.1344 65.9296ZM6.35647 82.2422C3.13262 82.2422 0.796199 79.89 0.676889 76.8048C0.651003 76.3839 0.676889 75.9618 0.742933 75.5264L4.75085 48.1901L5.20187 48.2578C5.20187 48.2578 5.97149 46.8983 12.6061 46.8983C19.2404 46.8983 25.875 50.9764 34.4998 50.9764C43.1248 50.9764 48.4324 46.8983 55.0668 46.8983C61.7011 46.8983 63.7978 48.2578 63.7978 48.2578L64.2488 48.1901L68.2567 75.5264C68.3226 75.9618 68.3487 76.3839 68.3226 76.8048C68.2035 79.89 65.8672 82.2422 62.643 82.2422H6.35647ZM11.2792 63.211C12.3807 63.211 13.2696 62.5988 13.2696 61.8515C13.2696 61.1042 12.3807 60.4922 11.2792 60.4922C10.1779 60.4922 9.28877 61.1042 9.28877 61.8515C9.28877 62.5988 10.1779 63.211 11.2792 63.211ZM16.5869 67.2891C16.5869 66.5418 15.698 65.9298 14.5965 65.9298C13.495 65.9298 12.6062 66.5418 12.6062 67.2891C12.6062 68.0364 13.495 68.6484 14.5965 68.6484C15.698 68.6484 16.5869 68.0364 16.5869 67.2891ZM14.5965 57.7734C15.698 57.7734 16.5869 57.1614 16.5869 56.414C16.5869 55.6667 15.698 55.0547 14.5965 55.0547C13.495 55.0547 12.6062 55.6667 12.6062 56.414C12.6062 57.1614 13.495 57.7734 14.5965 57.7734ZM17.9138 60.4922C16.8123 60.4922 15.9233 61.1042 15.9233 61.8515C15.9233 62.5988 16.8123 63.211 17.9138 63.211C19.0153 63.211 19.904 62.5988 19.904 61.8515C19.904 61.1042 19.0153 60.4922 17.9138 60.4922ZM21.231 65.9296C20.1295 65.9296 19.2406 66.5416 19.2406 67.2889C19.2406 68.0362 20.1295 68.6482 21.231 68.6482C22.3325 68.6482 23.2215 68.0362 23.2215 67.2889C23.2215 66.5416 22.3325 65.9296 21.231 65.9296ZM19.2406 56.414C19.2406 57.1614 20.1295 57.7734 21.231 57.7734C22.3325 57.7734 23.2215 57.1614 23.2215 56.414C23.2215 55.6667 22.3325 55.0547 21.231 55.0547C20.1295 55.0547 19.2406 55.6666 19.2406 56.414ZM47.7689 71.3672H21.231C20.1295 71.3672 19.2406 71.9792 19.2406 72.7265C19.2406 73.4738 20.1295 74.086 21.231 74.086H47.7689C48.8706 74.086 49.7594 73.4738 49.7594 72.7265C49.7594 71.9792 48.8706 71.3672 47.7689 71.3672Z" fill="#656D78"/>
<g opacity="0.2">
<path d="M54.4037 57.0938C55.5052 57.0938 56.394 57.7057 56.394 58.4531C56.394 59.2004 55.5052 59.8125 54.4037 59.8125C53.3022 59.8125 52.4135 59.2004 52.4135 58.4531C52.4135 57.7057 53.3024 57.0938 54.4037 57.0938Z" fill="black"/>
<path d="M57.7209 62.5311C58.8224 62.5311 59.7114 63.1433 59.7114 63.8906C59.7114 64.6379 58.8224 65.2499 57.7209 65.2499C56.6196 65.2499 55.7307 64.6379 55.7307 63.8906C55.7307 63.1433 56.6196 62.5311 57.7209 62.5311Z" fill="black"/>
<path d="M54.4037 67.9688C55.5052 67.9688 56.394 68.5809 56.394 69.3281C56.394 70.0754 55.5052 70.6876 54.4037 70.6876C53.3022 70.6876 52.4135 70.0754 52.4135 69.3281C52.4135 68.5807 53.3024 67.9688 54.4037 67.9688Z" fill="black"/>
<path d="M51.0863 62.5311C52.1878 62.5311 53.0767 63.1433 53.0767 63.8906C53.0767 64.6379 52.1878 65.2499 51.0863 65.2499C49.9848 65.2499 49.096 64.6379 49.096 63.8906C49.096 63.1433 49.9848 62.5311 51.0863 62.5311Z" fill="black"/>
<path d="M47.7691 57.0938C48.8707 57.0938 49.7595 57.7057 49.7595 58.4531C49.7595 59.2004 48.8707 59.8125 47.7691 59.8125C46.6677 59.8125 45.7788 59.2004 45.7788 58.4531C45.7788 57.7057 46.6677 57.0938 47.7691 57.0938Z" fill="black"/>
<path d="M41.1345 57.0938C42.236 57.0938 43.1249 57.7057 43.1249 58.4531C43.1249 59.2004 42.236 59.8125 41.1345 59.8125C40.033 59.8125 39.1442 59.2004 39.1442 58.4531C39.1442 57.7057 40.0332 57.0938 41.1345 57.0938Z" fill="black"/>
<path d="M44.4519 62.5311C45.5534 62.5311 46.4421 63.1433 46.4421 63.8906C46.4421 64.6379 45.5534 65.2499 44.4519 65.2499C43.3504 65.2499 42.4616 64.6379 42.4616 63.8906C42.4616 63.1433 43.3504 62.5311 44.4519 62.5311Z" fill="black"/>
<path d="M49.7595 69.3281C49.7595 70.0754 48.8707 70.6876 47.7691 70.6876C46.6677 70.6876 45.7788 70.0754 45.7788 69.3281C45.7788 68.5807 46.6677 67.9688 47.7691 67.9688C48.8707 67.9688 49.7595 68.5807 49.7595 69.3281Z" fill="black"/>
<path d="M47.7691 73.4064C48.8708 73.4064 49.7596 74.0185 49.7596 74.7659C49.7596 75.5132 48.8708 76.1252 47.7691 76.1252H21.2312C20.1297 76.1252 19.2408 75.5132 19.2408 74.7659C19.2408 74.0185 20.1297 73.4064 21.2312 73.4064H47.7691Z" fill="black"/>
<path d="M41.1345 67.9688C42.236 67.9688 43.1249 68.5809 43.1249 69.3281C43.1249 70.0754 42.236 70.6876 41.1345 70.6876C40.033 70.6876 39.1442 70.0754 39.1442 69.3281C39.1442 68.5807 40.0332 67.9688 41.1345 67.9688Z" fill="black"/>
<path d="M34.5001 67.9688C35.6016 67.9688 36.4904 68.5809 36.4904 69.3281C36.4904 70.0754 35.6016 70.6876 34.5001 70.6876C33.3988 70.6876 32.5098 70.0754 32.5098 69.3281C32.5098 68.5807 33.3988 67.9688 34.5001 67.9688Z" fill="black"/>
<path d="M37.8175 62.5311C38.919 62.5311 39.8077 63.1433 39.8077 63.8906C39.8077 64.6379 38.919 65.2499 37.8175 65.2499C36.716 65.2499 35.827 64.6379 35.827 63.8906C35.827 63.1433 36.7161 62.5311 37.8175 62.5311Z" fill="black"/>
<path d="M34.5001 57.0938C35.6016 57.0938 36.4904 57.7057 36.4904 58.4531C36.4904 59.2004 35.6016 59.8125 34.5001 59.8125C33.3988 59.8125 32.5098 59.2004 32.5098 58.4531C32.5098 57.7057 33.3988 57.0938 34.5001 57.0938Z" fill="black"/>
<path d="M31.1831 62.5311C32.2844 62.5311 33.1735 63.1433 33.1735 63.8906C33.1735 64.6379 32.2846 65.2499 31.1831 65.2499C30.0816 65.2499 29.1926 64.6379 29.1926 63.8906C29.1926 63.1433 30.0816 62.5311 31.1831 62.5311Z" fill="black"/>
<path d="M24.5484 62.5311C25.6499 62.5311 26.5389 63.1433 26.5389 63.8906C26.5389 64.6379 25.6499 65.2499 24.5484 65.2499C23.4469 65.2499 22.5582 64.6379 22.5582 63.8906C22.5582 63.1433 23.4469 62.5311 24.5484 62.5311Z" fill="black"/>
<path d="M27.8658 57.0938C28.9673 57.0938 29.8561 57.7057 29.8561 58.4531C29.8561 59.2004 28.9673 59.8125 27.8658 59.8125C26.7643 59.8125 25.8754 59.2004 25.8754 58.4531C25.8754 57.7057 26.7643 57.0938 27.8658 57.0938Z" fill="black"/>
<path d="M21.2312 57.0938C22.3327 57.0938 23.2217 57.7057 23.2217 58.4531C23.2217 59.2004 22.3327 59.8125 21.2312 59.8125C20.1297 59.8125 19.2408 59.2004 19.2408 58.4531C19.2408 57.7057 20.1297 57.0938 21.2312 57.0938Z" fill="black"/>
<path d="M17.914 62.5311C19.0155 62.5311 19.9043 63.1433 19.9043 63.8906C19.9043 64.6379 19.0155 65.2499 17.914 65.2499C16.8125 65.2499 15.9236 64.6379 15.9236 63.8906C15.9236 63.1433 16.8127 62.5311 17.914 62.5311Z" fill="black"/>
<path d="M14.5967 57.0938C15.6982 57.0938 16.5871 57.7057 16.5871 58.4531C16.5871 59.2004 15.6982 59.8125 14.5967 59.8125C13.4952 59.8125 12.6064 59.2004 12.6064 58.4531C12.6064 57.7057 13.4952 57.0938 14.5967 57.0938Z" fill="black"/>
<path d="M11.2794 62.5311C12.3809 62.5311 13.2698 63.1433 13.2698 63.8906C13.2698 64.6379 12.3809 65.2499 11.2794 65.2499C10.178 65.2499 9.28894 64.6379 9.28894 63.8906C9.28894 63.1433 10.178 62.5311 11.2794 62.5311Z" fill="black"/>
<path d="M14.5967 67.9688C15.6982 67.9688 16.5871 68.5809 16.5871 69.3281C16.5871 70.0754 15.6982 70.6876 14.5967 70.6876C13.4952 70.6876 12.6064 70.0754 12.6064 69.3281C12.6064 68.5807 13.4952 67.9688 14.5967 67.9688Z" fill="black"/>
<path d="M23.2217 69.3281C23.2217 70.0754 22.3327 70.6876 21.2312 70.6876C20.1297 70.6876 19.2408 70.0754 19.2408 69.3281C19.2408 68.5807 20.1297 67.9688 21.2312 67.9688C22.3327 67.9688 23.2217 68.5807 23.2217 69.3281Z" fill="black"/>
<path d="M27.8658 67.9688C28.9673 67.9688 29.8561 68.5809 29.8561 69.3281C29.8561 70.0754 28.9673 70.6876 27.8658 70.6876C26.7643 70.6876 25.8754 70.0754 25.8754 69.3281C25.8754 68.5807 26.7643 67.9688 27.8658 67.9688Z" fill="black"/>
</g>
<path d="M54.4037 55.0547C55.5052 55.0547 56.3939 55.6667 56.3939 56.414C56.3939 57.1613 55.5052 57.7733 54.4037 57.7733C53.3022 57.7733 52.4134 57.1613 52.4134 56.414C52.4134 55.6667 53.3023 55.0547 54.4037 55.0547Z" fill="#E6E9ED"/>
<path d="M57.7209 60.4921C58.8224 60.4921 59.7113 61.1041 59.7113 61.8514C59.7113 62.5987 58.8224 63.2109 57.7209 63.2109C56.6195 63.2109 55.7306 62.5987 55.7306 61.8514C55.7306 61.1041 56.6195 60.4921 57.7209 60.4921Z" fill="#E6E9ED"/>
<path d="M54.4037 65.9296C55.5052 65.9296 56.3939 66.5416 56.3939 67.2889C56.3939 68.0362 55.5052 68.6482 54.4037 68.6482C53.3022 68.6482 52.4134 68.0362 52.4134 67.2889C52.4134 66.5416 53.3023 65.9296 54.4037 65.9296Z" fill="#E6E9ED"/>
<path d="M51.0862 60.4921C52.1877 60.4921 53.0767 61.1041 53.0767 61.8514C53.0767 62.5987 52.1877 63.2109 51.0862 63.2109C49.9847 63.2109 49.0959 62.5987 49.0959 61.8514C49.0959 61.1041 49.9847 60.4921 51.0862 60.4921Z" fill="#E6E9ED"/>
<path d="M47.769 55.0547C48.8707 55.0547 49.7595 55.6667 49.7595 56.414C49.7595 57.1613 48.8707 57.7733 47.769 57.7733C46.6677 57.7733 45.7787 57.1613 45.7787 56.414C45.7787 55.6667 46.6677 55.0547 47.769 55.0547Z" fill="#E6E9ED"/>
<path d="M41.1344 55.0547C42.2359 55.0547 43.1249 55.6667 43.1249 56.414C43.1249 57.1613 42.2359 57.7733 41.1344 57.7733C40.0329 57.7733 39.1442 57.1613 39.1442 56.414C39.1442 55.6667 40.0331 55.0547 41.1344 55.0547Z" fill="#E6E9ED"/>
<path d="M44.4518 60.4921C45.5533 60.4921 46.4421 61.1041 46.4421 61.8514C46.4421 62.5987 45.5533 63.2109 44.4518 63.2109C43.3503 63.2109 42.4615 62.5987 42.4615 61.8514C42.4615 61.1041 43.3503 60.4921 44.4518 60.4921Z" fill="#E6E9ED"/>
<path d="M49.7595 67.2891C49.7595 68.0364 48.8707 68.6484 47.769 68.6484C46.6677 68.6484 45.7787 68.0364 45.7787 67.2891C45.7787 66.5418 46.6677 65.9298 47.769 65.9298C48.8707 65.9296 49.7595 66.5416 49.7595 67.2891Z" fill="#E6E9ED"/>
<path d="M47.7691 71.3672C48.8707 71.3672 49.7595 71.9792 49.7595 72.7265C49.7595 73.4738 48.8707 74.086 47.7691 74.086H21.2312C20.1297 74.086 19.2407 73.4738 19.2407 72.7265C19.2407 71.9792 20.1297 71.3672 21.2312 71.3672H47.7691Z" fill="#E6E9ED"/>
<path d="M41.1344 65.9296C42.2359 65.9296 43.1249 66.5416 43.1249 67.2889C43.1249 68.0362 42.2359 68.6482 41.1344 68.6482C40.0329 68.6482 39.1442 68.0362 39.1442 67.2889C39.1442 66.5416 40.0331 65.9296 41.1344 65.9296Z" fill="#E6E9ED"/>
<path d="M34.5 65.9296C35.6015 65.9296 36.4903 66.5416 36.4903 67.2889C36.4903 68.0362 35.6015 68.6482 34.5 68.6482C33.3987 68.6482 32.5098 68.0362 32.5098 67.2889C32.5098 66.5416 33.3987 65.9296 34.5 65.9296Z" fill="#E6E9ED"/>
<path d="M37.8174 60.4921C38.9189 60.4921 39.8077 61.1041 39.8077 61.8514C39.8077 62.5987 38.9189 63.2109 37.8174 63.2109C36.7159 63.2109 35.827 62.5987 35.827 61.8514C35.827 61.1041 36.7161 60.4921 37.8174 60.4921Z" fill="#E6E9ED"/>
<path d="M34.5 55.0547C35.6015 55.0547 36.4903 55.6667 36.4903 56.414C36.4903 57.1613 35.6015 57.7733 34.5 57.7733C33.3987 57.7733 32.5098 57.1613 32.5098 56.414C32.5098 55.6667 33.3987 55.0547 34.5 55.0547Z" fill="#E6E9ED"/>
<path d="M31.183 60.4921C32.2843 60.4921 33.1734 61.1041 33.1734 61.8514C33.1734 62.5987 32.2845 63.2109 31.183 63.2109C30.0815 63.2109 29.1926 62.5987 29.1926 61.8514C29.1926 61.1041 30.0815 60.4921 31.183 60.4921Z" fill="#E6E9ED"/>
<path d="M24.5484 60.4921C25.6499 60.4921 26.5388 61.1041 26.5388 61.8514C26.5388 62.5987 25.6499 63.2109 24.5484 63.2109C23.4469 63.2109 22.5581 62.5987 22.5581 61.8514C22.5581 61.1041 23.4469 60.4921 24.5484 60.4921Z" fill="#E6E9ED"/>
<path d="M27.8658 55.0547C28.9673 55.0547 29.8561 55.6667 29.8561 56.414C29.8561 57.1613 28.9673 57.7733 27.8658 57.7733C26.7643 57.7733 25.8754 57.1613 25.8754 56.414C25.8754 55.6667 26.7643 55.0547 27.8658 55.0547Z" fill="#E6E9ED"/>
<path d="M21.2312 55.0547C22.3327 55.0547 23.2216 55.6667 23.2216 56.414C23.2216 57.1613 22.3327 57.7733 21.2312 57.7733C20.1297 57.7733 19.2407 57.1613 19.2407 56.414C19.2407 55.6667 20.1297 55.0547 21.2312 55.0547Z" fill="#E6E9ED"/>
<path d="M17.914 60.4921C19.0155 60.4921 19.9042 61.1041 19.9042 61.8514C19.9042 62.5987 19.0155 63.2109 17.914 63.2109C16.8125 63.2109 15.9235 62.5987 15.9235 61.8514C15.9235 61.1041 16.8126 60.4921 17.914 60.4921Z" fill="#E6E9ED"/>
<path d="M14.5966 55.0547C15.6981 55.0547 16.587 55.6667 16.587 56.414C16.587 57.1613 15.6981 57.7733 14.5966 57.7733C13.4951 57.7733 12.6063 57.1613 12.6063 56.414C12.6063 55.6667 13.4951 55.0547 14.5966 55.0547Z" fill="#E6E9ED"/>
<path d="M11.2793 60.4921C12.3808 60.4921 13.2697 61.1041 13.2697 61.8514C13.2697 62.5987 12.3808 63.2109 11.2793 63.2109C10.178 63.2109 9.28888 62.5987 9.28888 61.8514C9.28888 61.1041 10.178 60.4921 11.2793 60.4921Z" fill="#E6E9ED"/>
<path d="M14.5966 65.9296C15.6981 65.9296 16.587 66.5416 16.587 67.2889C16.587 68.0362 15.6981 68.6482 14.5966 68.6482C13.4951 68.6482 12.6063 68.0362 12.6063 67.2889C12.6063 66.5416 13.4951 65.9296 14.5966 65.9296Z" fill="#E6E9ED"/>
<path d="M23.2216 67.2891C23.2216 68.0364 22.3327 68.6484 21.2312 68.6484C20.1297 68.6484 19.2407 68.0364 19.2407 67.2891C19.2407 66.5418 20.1297 65.9298 21.2312 65.9298C22.3327 65.9298 23.2216 66.5416 23.2216 67.2891Z" fill="#E6E9ED"/>
<path d="M27.8658 65.9296C28.9673 65.9296 29.8561 66.5416 29.8561 67.2889C29.8561 68.0362 28.9673 68.6482 27.8658 68.6482C26.7643 68.6482 25.8754 68.0362 25.8754 67.2889C25.8754 66.5416 26.7643 65.9296 27.8658 65.9296Z" fill="#E6E9ED"/>
<path opacity="0.2" d="M64.249 49.5495L64.0558 48.2194L63.798 48.258C63.798 48.258 61.7013 46.8985 55.0669 46.8985C48.4326 46.8985 43.125 50.9764 34.5 50.9764C25.8752 50.9764 19.2406 46.8983 12.6062 46.8983C5.97168 46.8983 5.20206 48.2578 5.20206 48.2578L4.94419 48.2192L4.75104 49.5493L5.20206 49.6169C5.20206 49.6169 5.97168 48.2576 12.6062 48.2576C19.2406 48.2576 25.8752 52.3358 34.5 52.3358C43.125 52.3358 48.4326 48.2576 55.0669 48.2576C61.7013 48.2576 63.798 49.6169 63.798 49.6169L64.249 49.5495Z" fill="black"/>
<g opacity="0.2">
<path d="M13.582 46.9351C13.2567 46.9162 12.9315 46.8984 12.6063 46.8984C12.9315 46.8984 13.2567 46.9162 13.5807 46.9351H13.582Z" fill="white"/>
<path d="M3.33087 76.8048C3.30498 76.3839 3.33087 75.9618 3.39691 75.5264L7.33099 48.692C5.50251 49.0901 5.20199 49.6171 5.20199 49.6171L4.75097 49.5495L4.94412 48.2194L5.20199 48.258L4.75097 48.1903L0.743055 75.5266C0.677011 75.9619 0.651125 76.3841 0.677011 76.805C0.796155 79.8901 3.13257 82.2424 6.35659 82.2424H9.01045C5.78626 82.2424 3.45001 79.8901 3.33087 76.8048Z" fill="white"/>
</g>
<g opacity="0.2">
<path d="M63.7983 48.2578H63.7996C63.7983 48.2551 63.0249 46.8983 56.3955 46.8983C56.2813 46.8983 56.1661 46.9077 56.0521 46.9116C61.9049 47.0379 63.7983 48.2578 63.7983 48.2578Z" fill="black"/>
<path d="M68.2585 75.5266L64.2506 48.1903L64.0289 48.2235L64.0561 48.2195L64.2492 49.5496L63.7982 49.6173C63.7982 49.6173 63.21 49.2429 61.6991 48.8858L65.6046 75.5264C65.6707 75.9618 65.6967 76.3839 65.6707 76.8048C65.5514 79.89 63.2151 82.2422 59.9911 82.2422H62.6448C65.869 82.2422 68.2052 79.89 68.3244 76.8048C68.3504 76.3841 68.3245 75.9618 68.2585 75.5266Z" fill="black"/>
</g>
<path opacity="0.2" d="M13.9332 38.7423H56.3939V40.1016H13.9332V38.7423Z" fill="black"/>
<path opacity="0.2" d="M17.9139 2.039H57.4241C58.1524 1.20941 59.1968 0.679688 60.3746 0.679688H17.9139C15.7111 0.679688 13.9332 2.50106 13.9332 4.75781V6.11729C13.9332 3.86038 15.7111 2.039 17.9139 2.039Z" fill="black"/>
<path opacity="0.5" d="M13.9332 6.11718V38.7421H15.2602V4.75769C15.2602 3.97977 15.4831 3.26169 15.8498 2.64307C14.7043 3.35859 13.9332 4.63818 13.9332 6.11718Z" fill="white"/>
<g opacity="0.2">
<path d="M58.6797 1.08027C58.7018 1.06949 58.7212 1.05454 58.7433 1.04358C58.7212 1.05436 58.7018 1.06932 58.6797 1.08027Z" fill="black"/>
<path d="M59.4015 0.817525C59.4468 0.805351 59.4896 0.783613 59.5362 0.774048C59.4898 0.785004 59.447 0.805351 59.4015 0.817525Z" fill="black"/>
<path d="M57.4239 2.03906H56.097C55.4635 2.76122 55.0669 3.70778 55.0669 4.75787V38.7423H56.3937V4.75787C56.3937 3.70778 56.7903 2.76122 57.4239 2.03906Z" fill="black"/>
</g>
<path d="M62.6436 82.9219H6.35654C2.81773 82.9219 0.15093 80.3612 0.0135332 76.8313C-0.0136808 76.3946 0.0108781 75.9284 0.0873758 75.4215L4.29475 46.7179C4.89993 42.6928 8.62923 39.4219 12.6061 39.4219H56.3937C60.3706 39.4219 64.0997 42.6928 64.705 46.714L68.9124 75.4256C68.9887 75.9286 69.0133 76.3946 68.9849 76.8473C68.8492 80.361 66.1824 82.9219 62.6436 82.9219ZM12.6063 40.7812C9.25648 40.7812 6.11692 43.5359 5.60633 46.9209L1.39879 75.627C1.33656 76.0386 1.31715 76.4077 1.33922 76.7621C1.44674 79.5498 3.55632 81.5624 6.35654 81.5624H62.6434C65.4438 81.5624 67.5534 79.5498 67.6596 76.7779C67.683 76.4075 67.6634 76.0384 67.6012 75.6309L63.3938 46.917C62.8834 43.5359 59.7436 40.7812 56.3938 40.7812H12.6063Z" fill="#3A3847"/>
<path d="M62.6436 86.9999H6.35656C2.82555 86.9999 0.152281 84.4404 0.00061312 80.9119C-0.0149851 80.5376 0.268936 80.2202 0.63566 80.2028C0.995913 80.1818 1.30954 80.4777 1.32762 80.8534C1.44544 83.6265 3.56149 85.6404 6.35656 85.6404H62.6434C65.4387 85.6404 67.5547 83.6265 67.6725 80.8534C67.6895 80.4777 67.9902 80.1831 68.3645 80.2028C68.7312 80.2202 69.015 80.5376 68.9994 80.9119C68.8479 84.4404 66.1746 86.9999 62.6436 86.9999Z" fill="#3A3847"/>
<path d="M14.5966 58.453C13.1091 58.453 11.9429 57.5569 11.9429 56.414C11.9429 55.2711 13.1091 54.375 14.5966 54.375C16.0843 54.375 17.2505 55.2711 17.2505 56.414C17.2505 57.5569 16.0843 58.453 14.5966 58.453ZM14.5966 55.7343C13.7985 55.7343 13.2698 56.1432 13.2698 56.414C13.2698 56.685 13.7985 57.0936 14.5966 57.0936C15.395 57.0936 15.9236 56.685 15.9236 56.414C15.9236 56.1432 15.395 55.7343 14.5966 55.7343Z" fill="#3A3847"/>
<path d="M17.9138 63.8906C16.4262 63.8906 15.2599 62.9946 15.2599 61.8515C15.2599 60.7084 16.4262 59.8125 17.9138 59.8125C19.4014 59.8125 20.5677 60.7086 20.5677 61.8515C20.5677 62.9944 19.4014 63.8906 17.9138 63.8906ZM17.9138 61.1718C17.1155 61.1718 16.587 61.5807 16.587 61.8515C16.587 62.1223 17.1156 62.5311 17.9138 62.5311C18.712 62.5311 19.2407 62.1223 19.2407 61.8515C19.2407 61.5807 18.7121 61.1718 17.9138 61.1718Z" fill="#3A3847"/>
<path d="M24.5485 63.8906C23.0608 63.8906 21.8948 62.9946 21.8948 61.8515C21.8948 60.7084 23.0608 59.8125 24.5485 59.8125C26.0361 59.8125 27.2023 60.7086 27.2023 61.8515C27.2023 62.9944 26.0361 63.8906 24.5485 63.8906ZM24.5485 61.1718C23.7503 61.1718 23.2216 61.5807 23.2216 61.8515C23.2216 62.1223 23.7503 62.5311 24.5485 62.5311C25.3468 62.5311 25.8755 62.1223 25.8755 61.8515C25.8755 61.5807 25.3466 61.1718 24.5485 61.1718Z" fill="#3A3847"/>
<path d="M31.183 63.8906C29.6954 63.8906 28.5292 62.9946 28.5292 61.8515C28.5292 60.7084 29.6954 59.8125 31.183 59.8125C32.6705 59.8125 33.8369 60.7086 33.8369 61.8515C33.8369 62.9944 32.6705 63.8906 31.183 63.8906ZM31.183 61.1718C30.3849 61.1718 29.856 61.5807 29.856 61.8515C29.856 62.1223 30.3849 62.5311 31.183 62.5311C31.9812 62.5311 32.51 62.1223 32.51 61.8515C32.51 61.5807 31.9812 61.1718 31.183 61.1718Z" fill="#3A3847"/>
<path d="M37.8174 63.8906C36.3298 63.8906 35.1636 62.9946 35.1636 61.8515C35.1636 60.7084 36.3298 59.8125 37.8174 59.8125C39.3049 59.8125 40.4711 60.7086 40.4711 61.8515C40.4711 62.9944 39.3049 63.8906 37.8174 63.8906ZM37.8174 61.1718C37.0191 61.1718 36.4904 61.5807 36.4904 61.8515C36.4904 62.1223 37.0193 62.5311 37.8174 62.5311C38.6156 62.5311 39.1443 62.1223 39.1443 61.8515C39.1443 61.5807 38.6156 61.1718 37.8174 61.1718Z" fill="#3A3847"/>
<path d="M44.4519 63.8906C42.9643 63.8906 41.7982 62.9946 41.7982 61.8515C41.7982 60.7084 42.9643 59.8125 44.4519 59.8125C45.9395 59.8125 47.1056 60.7086 47.1056 61.8515C47.1056 62.9944 45.9395 63.8906 44.4519 63.8906ZM44.4519 61.1718C43.6536 61.1718 43.1251 61.5807 43.1251 61.8515C43.1251 62.1223 43.6537 62.5311 44.4519 62.5311C45.2501 62.5311 45.7788 62.1223 45.7788 61.8515C45.7788 61.5807 45.2501 61.1718 44.4519 61.1718Z" fill="#3A3847"/>
<path d="M51.0863 63.8906C49.5988 63.8906 48.4326 62.9946 48.4326 61.8515C48.4326 60.7084 49.5988 59.8125 51.0863 59.8125C52.5739 59.8125 53.7402 60.7086 53.7402 61.8515C53.7402 62.9944 52.5739 63.8906 51.0863 63.8906ZM51.0863 61.1718C50.2881 61.1718 49.7595 61.5807 49.7595 61.8515C49.7595 62.1223 50.2883 62.5311 51.0863 62.5311C51.8846 62.5311 52.4133 62.1223 52.4133 61.8515C52.4133 61.5807 51.8846 61.1718 51.0863 61.1718Z" fill="#3A3847"/>
<path d="M57.721 63.8906C56.2335 63.8906 55.0673 62.9946 55.0673 61.8515C55.0673 60.7084 56.2335 59.8125 57.721 59.8125C59.2086 59.8125 60.3748 60.7086 60.3748 61.8515C60.3748 62.9944 59.2084 63.8906 57.721 63.8906ZM57.721 61.1718C56.9228 61.1718 56.3941 61.5807 56.3941 61.8515C56.3941 62.1223 56.923 62.5311 57.721 62.5311C58.5193 62.5311 59.048 62.1223 59.048 61.8515C59.048 61.5807 58.5191 61.1718 57.721 61.1718Z" fill="#3A3847"/>
<path d="M11.2794 63.8906C9.79193 63.8906 8.62555 62.9946 8.62555 61.8515C8.62555 60.7084 9.79177 59.8125 11.2794 59.8125C12.767 59.8125 13.9333 60.7086 13.9333 61.8515C13.9333 62.9944 12.767 63.8906 11.2794 63.8906ZM11.2794 61.1718C10.4812 61.1718 9.95239 61.5807 9.95239 61.8515C9.95239 62.1223 10.4812 62.5311 11.2794 62.5311C12.0776 62.5311 12.6064 62.1223 12.6064 61.8515C12.6064 61.5807 12.0777 61.1718 11.2794 61.1718Z" fill="#3A3847"/>
<path d="M21.2312 58.453C19.7438 58.453 18.5774 57.5569 18.5774 56.414C18.5774 55.2711 19.7436 54.375 21.2312 54.375C22.7189 54.375 23.8851 55.2711 23.8851 56.414C23.8851 57.5569 22.7187 58.453 21.2312 58.453ZM21.2312 55.7343C20.4331 55.7343 19.9042 56.1432 19.9042 56.414C19.9042 56.685 20.4331 57.0936 21.2312 57.0936C22.0294 57.0936 22.5583 56.685 22.5583 56.414C22.5583 56.1432 22.0294 55.7343 21.2312 55.7343Z" fill="#3A3847"/>
<path d="M27.8656 58.453C26.378 58.453 25.2118 57.5569 25.2118 56.414C25.2118 55.2711 26.378 54.375 27.8656 54.375C29.3531 54.375 30.5193 55.2711 30.5193 56.414C30.5193 57.5569 29.3531 58.453 27.8656 58.453ZM27.8656 55.7343C27.0673 55.7343 26.5386 56.1432 26.5386 56.414C26.5386 56.685 27.0673 57.0936 27.8656 57.0936C28.6638 57.0936 29.1925 56.685 29.1925 56.414C29.1925 56.1432 28.6638 55.7343 27.8656 55.7343Z" fill="#3A3847"/>
<path d="M34.5001 58.453C33.0126 58.453 31.8464 57.5569 31.8464 56.414C31.8464 55.2711 33.0126 54.375 34.5001 54.375C35.9877 54.375 37.1538 55.2711 37.1538 56.414C37.1538 57.5569 35.9877 58.453 34.5001 58.453ZM34.5001 55.7343C33.7019 55.7343 33.1732 56.1432 33.1732 56.414C33.1732 56.685 33.7019 57.0936 34.5001 57.0936C35.2984 57.0936 35.8269 56.685 35.8269 56.414C35.8269 56.1432 35.2984 55.7343 34.5001 55.7343Z" fill="#3A3847"/>
<path d="M41.1345 58.453C39.647 58.453 38.4808 57.5569 38.4808 56.414C38.4808 55.2711 39.647 54.375 41.1345 54.375C42.6221 54.375 43.7883 55.2711 43.7883 56.414C43.7883 57.5569 42.6221 58.453 41.1345 58.453ZM41.1345 55.7343C40.3363 55.7343 39.8076 56.1432 39.8076 56.414C39.8076 56.685 40.3365 57.0936 41.1345 57.0936C41.9328 57.0936 42.4615 56.685 42.4615 56.414C42.4616 56.1432 41.9328 55.7343 41.1345 55.7343Z" fill="#3A3847"/>
<path d="M47.7691 58.453C46.2816 58.453 45.1154 57.5569 45.1154 56.414C45.1154 55.2711 46.2816 54.375 47.7691 54.375C49.2567 54.375 50.423 55.2711 50.423 56.414C50.423 57.5569 49.2567 58.453 47.7691 58.453ZM47.7691 55.7343C46.9709 55.7343 46.4423 56.1432 46.4423 56.414C46.4423 56.685 46.9711 57.0936 47.7691 57.0936C48.5674 57.0936 49.0961 56.685 49.0961 56.414C49.0961 56.1432 48.5673 55.7343 47.7691 55.7343Z" fill="#3A3847"/>
<path d="M54.4037 58.453C52.916 58.453 51.7498 57.5569 51.7498 56.414C51.7498 55.2711 52.916 54.375 54.4037 54.375C55.8913 54.375 57.0574 55.2711 57.0574 56.414C57.0574 57.5569 55.8913 58.453 54.4037 58.453ZM54.4037 55.7343C53.6053 55.7343 53.0768 56.1432 53.0768 56.414C53.0768 56.685 53.6055 57.0936 54.4037 57.0936C55.2018 57.0936 55.7305 56.685 55.7305 56.414C55.7305 56.1432 55.202 55.7343 54.4037 55.7343Z" fill="#3A3847"/>
<path d="M14.5966 69.3281C13.1091 69.3281 11.9429 68.432 11.9429 67.2891C11.9429 66.1462 13.1091 65.2501 14.5966 65.2501C16.0843 65.2501 17.2505 66.1462 17.2505 67.2891C17.2505 68.432 16.0843 69.3281 14.5966 69.3281ZM14.5966 66.6094C13.7985 66.6094 13.2698 67.0183 13.2698 67.2891C13.2698 67.5601 13.7985 67.9688 14.5966 67.9688C15.395 67.9688 15.9236 67.5601 15.9236 67.2891C15.9236 67.0183 15.395 66.6094 14.5966 66.6094Z" fill="#3A3847"/>
<path d="M21.2312 69.3281C19.7438 69.3281 18.5774 68.432 18.5774 67.2891C18.5774 66.1462 19.7436 65.2501 21.2312 65.2501C22.7189 65.2501 23.8851 66.1462 23.8851 67.2891C23.8851 68.432 22.7187 69.3281 21.2312 69.3281ZM21.2312 66.6094C20.4331 66.6094 19.9042 67.0183 19.9042 67.2891C19.9042 67.5601 20.4331 67.9688 21.2312 67.9688C22.0294 67.9688 22.5583 67.5601 22.5583 67.2891C22.5583 67.0183 22.0294 66.6094 21.2312 66.6094Z" fill="#3A3847"/>
<path d="M27.8656 69.3281C26.378 69.3281 25.2118 68.432 25.2118 67.2891C25.2118 66.1462 26.378 65.2501 27.8656 65.2501C29.3531 65.2501 30.5193 66.1462 30.5193 67.2891C30.5193 68.432 29.3531 69.3281 27.8656 69.3281ZM27.8656 66.6094C27.0673 66.6094 26.5386 67.0183 26.5386 67.2891C26.5386 67.5601 27.0673 67.9688 27.8656 67.9688C28.6638 67.9688 29.1925 67.5601 29.1925 67.2891C29.1925 67.0183 28.6638 66.6094 27.8656 66.6094Z" fill="#3A3847"/>
<path d="M34.5001 69.3281C33.0126 69.3281 31.8464 68.432 31.8464 67.2891C31.8464 66.1462 33.0126 65.2501 34.5001 65.2501C35.9877 65.2501 37.1538 66.1462 37.1538 67.2891C37.1538 68.432 35.9877 69.3281 34.5001 69.3281ZM34.5001 66.6094C33.7019 66.6094 33.1732 67.0183 33.1732 67.2891C33.1732 67.5601 33.7019 67.9688 34.5001 67.9688C35.2984 67.9688 35.8269 67.5601 35.8269 67.2891C35.8269 67.0183 35.2984 66.6094 34.5001 66.6094Z" fill="#3A3847"/>
<path d="M41.1345 69.3281C39.647 69.3281 38.4808 68.432 38.4808 67.2891C38.4808 66.1462 39.647 65.2501 41.1345 65.2501C42.6221 65.2501 43.7883 66.1462 43.7883 67.2891C43.7883 68.432 42.6221 69.3281 41.1345 69.3281ZM41.1345 66.6094C40.3363 66.6094 39.8076 67.0183 39.8076 67.2891C39.8076 67.5601 40.3365 67.9688 41.1345 67.9688C41.9328 67.9688 42.4615 67.5601 42.4615 67.2891C42.4616 67.0183 41.9328 66.6094 41.1345 66.6094Z" fill="#3A3847"/>
<path d="M47.7691 69.3281C46.2816 69.3281 45.1154 68.432 45.1154 67.2891C45.1154 66.1462 46.2816 65.2501 47.7691 65.2501C49.2567 65.2501 50.423 66.1462 50.423 67.2891C50.423 68.432 49.2567 69.3281 47.7691 69.3281ZM47.7691 66.6094C46.9709 66.6094 46.4423 67.0183 46.4423 67.2891C46.4423 67.5601 46.9711 67.9688 47.7691 67.9688C48.5674 67.9688 49.0961 67.5601 49.0961 67.2891C49.0961 67.0183 48.5673 66.6094 47.7691 66.6094Z" fill="#3A3847"/>
<path d="M54.4037 69.3281C52.916 69.3281 51.7498 68.432 51.7498 67.2891C51.7498 66.1462 52.916 65.2501 54.4037 65.2501C55.8913 65.2501 57.0574 66.1462 57.0574 67.2891C57.0574 68.432 55.8913 69.3281 54.4037 69.3281ZM54.4037 66.6094C53.6053 66.6094 53.0768 67.0183 53.0768 67.2891C53.0768 67.5601 53.6055 67.9688 54.4037 67.9688C55.2018 67.9688 55.7305 67.5601 55.7305 67.2891C55.7305 67.0183 55.202 66.6094 54.4037 66.6094Z" fill="#3A3847"/>
<path d="M47.7692 74.7656H21.2312C19.7438 74.7656 18.5774 73.8695 18.5774 72.7265C18.5774 71.5834 19.7436 70.6875 21.2312 70.6875H47.7692C49.2568 70.6875 50.423 71.5836 50.423 72.7265C50.423 73.8694 49.2568 74.7656 47.7692 74.7656ZM21.2312 72.0468C20.4331 72.0468 19.9042 72.4557 19.9042 72.7265C19.9042 72.9973 20.4331 73.4061 21.2312 73.4061H47.7692C48.5675 73.4061 49.0962 72.9973 49.0962 72.7265C49.0962 72.4557 48.5673 72.0468 47.7692 72.0468H21.2312Z" fill="#3A3847"/>
<path d="M34.5001 51.6563C29.8145 51.6563 25.8065 50.5052 21.9296 49.3917C18.6823 48.4598 15.6151 47.5781 12.6063 47.5781C6.78036 47.5781 5.74241 48.6536 5.73196 48.6643C5.54677 48.9895 5.16179 49.0624 4.84701 48.8793C4.53089 48.691 4.44394 48.2422 4.62797 47.917C4.85348 47.5186 6.09603 46.219 12.6063 46.219C15.7978 46.219 18.9505 47.1244 22.2885 48.0829C26.0774 49.1714 29.996 50.2971 34.5001 50.2971C38.9952 50.2971 42.5391 49.1741 45.9668 48.0881C49.0014 47.1271 51.8665 46.219 55.0672 46.219C61.8171 46.219 64.0612 47.6235 64.1533 47.6832C64.4631 47.8852 64.555 48.3044 64.3594 48.6218C64.1623 48.939 63.7555 49.0291 63.4484 48.8355C63.3966 48.8049 61.2882 47.5781 55.0672 47.5781C52.0673 47.5781 49.2943 48.457 46.358 49.3864C43.0006 50.4508 39.1948 51.6563 34.5001 51.6563Z" fill="#3A3847"/>
<path d="M63.0286 80.2028H5.97177C5.60521 80.2028 5.30835 79.899 5.30835 79.5232C5.30835 79.1476 5.60521 78.8435 5.97177 78.8435H63.0286C63.3952 78.8435 63.692 79.1476 63.692 79.5232C63.692 79.899 63.3952 80.2028 63.0286 80.2028Z" fill="#3A3847"/>
<path d="M5.97182 40.7812C4.8368 40.7812 3.98138 39.3196 3.98138 37.383C3.98138 35.446 4.83663 33.9845 5.97182 33.9845H11.2794C11.6461 33.9845 11.943 34.2885 11.943 34.6642C11.943 35.0399 11.6461 35.3438 11.2794 35.3438H5.97182C5.84089 35.3438 5.3084 35.9997 5.3084 37.383C5.3084 38.7662 5.84089 39.4219 5.97182 39.4219C6.33854 39.4219 6.63541 39.7259 6.63541 40.1016C6.63541 40.4773 6.33854 40.7812 5.97182 40.7812Z" fill="#3A3847"/>
<path d="M63.0285 40.7812C62.6616 40.7812 62.3649 40.4773 62.3649 40.1016C62.3649 39.7259 62.6616 39.4219 63.0285 39.4219C63.1593 39.4219 63.6919 38.7662 63.6919 37.383C63.6919 35.9997 63.1593 35.3438 63.0285 35.3438H59.0478C58.6811 35.3438 58.3842 35.0399 58.3842 34.6642C58.3842 34.2885 58.6811 33.9845 59.0478 33.9845H63.0285C64.1635 33.9845 65.0188 35.4462 65.0188 37.383C65.0188 39.3196 64.1635 40.7812 63.0285 40.7812Z" fill="#3A3847"/>
<path d="M4.6449 38.0625H3.98148C3.61475 38.0625 3.31805 37.7584 3.31805 37.3828C3.31805 37.0071 3.61475 36.703 3.98148 36.703H4.6449C5.01162 36.703 5.30849 37.0071 5.30849 37.3828C5.30832 37.7584 5.01146 38.0625 4.6449 38.0625Z" fill="#3A3847"/>
<path d="M65.0187 38.0625H64.3553C63.9886 38.0625 63.6919 37.7584 63.6919 37.3828C63.6919 37.0071 63.9886 36.703 64.3553 36.703H65.0187C65.3855 36.703 65.6822 37.0071 65.6822 37.3828C65.6822 37.7584 65.3855 38.0625 65.0187 38.0625Z" fill="#3A3847"/>
<path d="M39.1442 41.4608H29.856C29.4893 41.4608 29.1926 41.1567 29.1926 40.781C29.1926 40.4053 29.4893 40.1013 29.856 40.1013H39.1442C39.511 40.1013 39.8077 40.4053 39.8077 40.781C39.8077 41.1567 39.511 41.4608 39.1442 41.4608Z" fill="#3A3847"/>
<path d="M13.9331 38.0626C13.5664 38.0626 13.2697 37.7584 13.2697 37.3829V4.75778C13.2697 4.38225 13.5664 4.07812 13.9331 4.07812C14.2998 4.07812 14.5965 4.38225 14.5965 4.75778V37.3829C14.5965 37.7584 14.2998 38.0626 13.9331 38.0626Z" fill="#3A3847"/>
<path d="M64.3553 6.79693C63.9886 6.79693 63.6919 6.49297 63.6919 6.11727V4.75778C63.6919 4.38225 63.9886 4.07812 64.3553 4.07812C64.722 4.07812 65.0187 4.38225 65.0187 4.75778V6.11727C65.0187 6.49297 64.722 6.79693 64.3553 6.79693Z" fill="#3A3847"/>
<path d="M56.3938 38.0626C56.027 38.0626 55.7303 37.7584 55.7303 37.3829V4.75778C55.7303 4.38225 56.027 4.07812 56.3938 4.07812C56.7605 4.07812 57.0572 4.38225 57.0572 4.75778V37.3829C57.0574 37.7584 56.7605 38.0626 56.3938 38.0626Z" fill="#3A3847"/>
<path d="M60.3747 1.35932H17.9139C17.5471 1.35932 17.2504 1.05536 17.2504 0.679658C17.2504 0.303959 17.5471 0 17.9139 0H60.3746C60.7413 0 61.038 0.303959 61.038 0.679658C61.038 1.05536 60.7414 1.35932 60.3747 1.35932Z" fill="#3A3847"/>
<path d="M64.3555 6.79694H57.7209C57.3544 6.79694 57.0575 6.49298 57.0575 6.11728C57.0575 5.74158 57.3544 5.43762 57.7209 5.43762H64.3555C64.7222 5.43762 65.0189 5.74158 65.0189 6.11728C65.0189 6.49298 64.7222 6.79694 64.3555 6.79694Z" fill="#3A3847"/>
<path d="M13.9331 5.43761C13.5664 5.43761 13.2697 5.13348 13.2697 4.75778C13.2697 2.13468 15.3533 0 17.9138 0C18.2805 0 18.5772 0.303959 18.5772 0.679658C18.5772 1.05536 18.2805 1.35932 17.9138 1.35932C16.0841 1.35932 14.5965 2.88336 14.5965 4.75778C14.5965 5.13348 14.2998 5.43761 13.9331 5.43761Z" fill="#3A3847"/>
<path d="M56.3938 5.43761C56.027 5.43761 55.7303 5.13348 55.7303 4.75778C55.7303 2.13468 57.814 0 60.3745 0C60.7412 0 61.0379 0.303959 61.0379 0.679658C61.0379 1.05536 60.7412 1.35932 60.3745 1.35932C58.5448 1.35932 57.0572 2.88336 57.0572 4.75778C57.0574 5.13348 56.7605 5.43761 56.3938 5.43761Z" fill="#3A3847"/>
<path d="M64.3555 5.43761C63.9888 5.43761 63.6921 5.13348 63.6921 4.75778C63.6921 2.88336 62.2044 1.35932 60.3748 1.35932C60.0081 1.35932 59.7114 1.05536 59.7114 0.679658C59.7114 0.303959 60.0081 0 60.3748 0C62.9354 0 65.0189 2.13468 65.0189 4.75778C65.0189 5.13348 64.7222 5.43761 64.3555 5.43761Z" fill="#3A3847"/>
<path d="M49.7594 9.51549H20.5676C20.2009 9.51549 19.9041 9.21136 19.9041 8.83566C19.9041 8.46013 20.2009 8.15601 20.5676 8.15601H49.7594C50.1261 8.15601 50.4228 8.46013 50.4228 8.83566C50.4228 9.21153 50.1261 9.51549 49.7594 9.51549Z" fill="#3A3847"/>
<path d="M49.7594 14.9531H20.5676C20.2009 14.9531 19.9041 14.649 19.9041 14.2733C19.9041 13.8978 20.2009 13.5936 20.5676 13.5936H49.7594C50.1261 13.5936 50.4228 13.8978 50.4228 14.2733C50.4228 14.649 50.1261 14.9531 49.7594 14.9531Z" fill="#3A3847"/>
<path d="M49.7594 20.3906H20.5676C20.2009 20.3906 19.9041 20.0865 19.9041 19.7108C19.9041 19.3353 20.2009 19.0311 20.5676 19.0311H49.7594C50.1261 19.0311 50.4228 19.3353 50.4228 19.7108C50.4228 20.0865 50.1261 20.3906 49.7594 20.3906Z" fill="#3A3847"/>
<path d="M49.7594 25.8281H20.5676C20.2009 25.8281 19.9041 25.524 19.9041 25.1485C19.9041 24.7728 20.2009 24.4686 20.5676 24.4686H49.7594C50.1261 24.4686 50.4228 24.7728 50.4228 25.1485C50.4228 25.5242 50.1261 25.8281 49.7594 25.8281Z" fill="#3A3847"/>
<path d="M35.1634 31.2656H20.5676C20.2009 31.2656 19.9041 30.9615 19.9041 30.586C19.9041 30.2103 20.2009 29.9061 20.5676 29.9061H35.1634C35.5302 29.9061 35.8269 30.2103 35.8269 30.586C35.8269 30.9615 35.5302 31.2656 35.1634 31.2656Z" fill="#3A3847"/>
<path d="M68.3359 81.5623C67.9694 81.5623 67.6725 81.2584 67.6725 80.8827V76.8045C67.6725 76.4288 67.9694 76.1249 68.3359 76.1249C68.7028 76.1249 68.9993 76.4288 68.9993 76.8045V80.8827C68.9993 81.2584 68.7028 81.5623 68.3359 81.5623Z" fill="#3A3847"/>
<path d="M0.664277 81.5623C0.297719 81.5623 0.000854492 81.2584 0.000854492 80.8827V76.8045C0.000854492 76.4288 0.297719 76.1249 0.664277 76.1249C1.031 76.1249 1.32787 76.4288 1.32787 76.8045V80.8827C1.3277 81.2584 1.031 81.5623 0.664277 81.5623Z" fill="#3A3847"/>
</svg>
